<svg width="90" height="90" viewBox="0 0 90 90" fill="none" xmlns="http://www.w3.org/2000/svg">
<path d="M83.6602 22.3111C83.6602 15.0883 73.9878 9.64258 61.1602 9.64258C48.3325 9.64258 38.6602 15.0883 38.6602 22.3111C38.6602 22.3753 38.6742 22.4359 38.676 22.4992H38.6602V32.1417H45.0885V31.3454C49.1112 33.6139 54.7397 34.9779 61.1602 34.9779C67.0831 34.9779 72.3161 33.8063 76.2519 31.8455C76.8618 32.4766 77.2318 33.1041 77.2318 33.6543C77.2318 36.1372 70.822 39.8928 61.1602 39.8928H54.7336V46.3211H61.1602C67.084 46.3211 72.3187 45.1495 76.2545 43.1878C76.8653 43.818 77.231 44.4455 77.231 44.9983C77.231 47.483 70.8211 51.2386 61.1593 51.2386L58.8838 51.2491C57.4854 51.2614 56.1311 51.2746 54.8109 51.2395L54.6536 57.6651C55.3603 57.6827 56.0757 57.6889 56.8052 57.6889C57.5021 57.6889 58.2114 57.6845 58.9321 57.6783L61.1593 57.6678C67.0866 57.6678 72.3231 56.4944 76.2598 54.531C76.8724 55.1664 77.2301 55.7975 77.2301 56.3433C77.2301 58.8279 70.8202 62.5835 61.1584 62.5835H54.7318V69.0118H61.1584C67.0857 69.0118 72.3214 67.8385 76.2589 65.875C76.8724 66.5096 77.2301 67.1406 77.2301 67.6873C77.2301 70.172 70.8202 73.9275 61.1584 73.9275H54.7318V80.3559H61.1584C73.986 80.3559 83.6584 74.9102 83.6584 67.6873C83.6584 67.6275 83.6505 67.5599 83.6487 67.4992H83.6584V22.4992H83.6426C83.6452 22.4359 83.6602 22.3744 83.6602 22.3111ZM45.0885 22.3111C45.0885 19.8265 51.4983 16.0709 61.1602 16.0709C70.822 16.0709 77.2318 19.8265 77.2318 22.3111C77.2318 24.794 70.822 28.5496 61.1602 28.5496C51.4983 28.5496 45.0885 24.794 45.0885 22.3111Z" fill="black"/>
<path d="M29.0176 32.1426C16.1899 32.1426 6.51758 37.5883 6.51758 44.8111C6.51758 44.8753 6.53164 44.9359 6.5334 44.9992H6.51758V67.4992C6.51758 74.7221 16.1899 80.1678 29.0176 80.1678C41.8452 80.1678 51.5176 74.7221 51.5176 67.4992V45.0001H51.5018C51.5035 44.9368 51.5176 44.8753 51.5176 44.812C51.5176 37.5892 41.8452 32.1426 29.0176 32.1426ZM12.9459 56.1561C12.9459 55.6006 13.3089 54.9739 13.9197 54.3437C17.8563 56.3063 23.092 57.4788 29.0176 57.4788C34.9405 57.4788 40.1735 56.3072 44.1093 54.3464C44.7192 54.9774 45.0893 55.605 45.0893 56.1552C45.0893 58.6381 38.6794 62.3937 29.0176 62.3937C19.3558 62.3937 12.9459 58.639 12.9459 56.1561ZM29.0176 38.5718C38.6794 38.5718 45.0893 42.3273 45.0893 44.812C45.0893 47.2949 38.6794 51.0505 29.0176 51.0505C19.3558 51.0505 12.9459 47.2949 12.9459 44.812C12.9459 42.3273 19.3558 38.5718 29.0176 38.5718ZM29.0176 73.7403C19.3558 73.7403 12.9459 69.9848 12.9459 67.5001C12.9459 66.9473 13.3124 66.3197 13.9224 65.6896C17.859 67.6513 23.0929 68.8237 29.0176 68.8237C34.9414 68.8237 40.1762 67.6521 44.1119 65.6904C44.7228 66.3206 45.0884 66.9481 45.0884 67.501C45.0893 69.9848 38.6794 73.7403 29.0176 73.7403Z" fill="black"/>
</svg>
