<svg width="90" height="90" viewBox="0 0 90 90" fill="none" xmlns="http://www.w3.org/2000/svg">
<path d="M58.0935 7.00141C51.343 7.78176 47.5102 15.1845 47.0225 21.6144C46.2251 27.3306 48.7199 34.6246 54.7224 35.939C59.9241 36.4031 64.0626 31.5149 65.7625 26.8521C67.7701 21.0157 67.8288 13.2217 62.9574 8.84931C61.6043 7.67638 59.8669 6.96387 58.0935 7.00141ZM30.5576 7.30745C24.9407 7.71387 22.0617 14.2431 22.4524 19.4841C22.5002 26.4918 26.3476 34.3735 33.3637 36.037C38.5961 36.603 42.0847 31.0523 42.4098 26.1989C43.0775 18.7714 39.7874 9.77363 32.3367 7.53109C31.7576 7.37111 31.157 7.29171 30.5576 7.30745ZM75.6916 29.8125C68.1555 30.365 63.3898 38.3983 63.0623 45.6574C62.6658 50.3849 65.7192 56.3301 70.8606 56.0043C78.5497 55.1891 83.1854 46.6172 82.9943 39.1695C82.9449 34.8818 80.2285 29.9912 75.6916 29.8125ZM7.05838 39.6119C6.36061 47.6554 11.9878 56.7468 20.1623 57.2533C25.1169 56.9223 27.4531 51.1665 26.8853 46.6128C26.4328 39.8937 21.9414 33.0132 16.1058 32.1144C10.2703 31.2155 6.96586 35.3392 7.05838 39.6119ZM45.861 46.4735C38.1973 46.4914 31.1904 51.5036 27.4443 58.2851C24.3056 63.353 21.7398 69.0903 21.2517 75.145C21.3585 79.8145 25.8128 83.7007 30.2792 82.7706C36.6499 81.9435 42.3428 77.5182 48.9676 78.3474C54.4731 78.787 59.0136 83.0572 64.5723 82.9951C69.9696 83.1979 73.0831 77.0113 71.0248 72.1657C68.8099 65.2276 64.5157 59.1935 59.9066 53.7591C56.2299 49.7533 51.4143 46.2962 45.861 46.4735Z" fill="black"/>
</svg>
