<svg width="90" height="91" viewBox="0 0 90 91" fill="none" xmlns="http://www.w3.org/2000/svg">
<path d="M79.8959 35.9702L72.6295 40.5507C72.1024 40.8674 71.4794 40.9851 70.873 40.8826C70.2667 40.7801 69.717 40.4641 69.3232 39.9918L65.7138 35.4586V69.8291C65.7125 70.4255 65.475 70.9971 65.0534 71.4187C64.6317 71.8404 64.0601 72.0779 63.4638 72.0791H26.5638C25.9674 72.0779 25.3958 71.8404 24.9741 71.4187C24.5525 70.9971 24.315 70.4255 24.3138 69.8291V35.4207L20.6711 39.9918C20.2776 40.4629 19.7288 40.7781 19.1235 40.8806C18.5182 40.9831 17.8962 40.8661 17.3695 40.5507L10.0985 35.9702C9.8555 35.8305 9.64775 35.637 9.49123 35.4046C9.33471 35.1721 9.23358 34.9068 9.19561 34.6291C9.15764 34.3515 9.18385 34.0688 9.27221 33.8028C9.36058 33.5368 9.50875 33.2947 9.70533 33.0949L20.3395 21.2907C21.5895 19.9013 23.1177 18.7902 24.8248 18.0296C26.532 17.2691 28.3801 16.876 30.249 16.876H34.678C35.545 18.8986 36.9864 20.6225 38.8236 21.8339C40.6608 23.0453 42.8131 23.691 45.0138 23.691C47.2144 23.691 49.3667 23.0453 51.2039 21.8339C53.0411 20.6225 54.4826 18.8986 55.3495 16.876H59.7738C61.6438 16.8765 63.4927 17.2703 65.2007 18.0316C66.9087 18.793 68.4375 19.905 69.688 21.2954L80.2985 33.0902C80.4947 33.291 80.6423 33.5342 80.7299 33.8009C80.8176 34.0677 80.8429 34.3509 80.804 34.629C80.7652 34.9071 80.6631 35.1726 80.5057 35.405C80.3482 35.6375 80.1396 35.8309 79.8959 35.9702Z" fill="black"/>
</svg>
