<svg width="150" height="150" viewBox="0 0 150 150" fill="none" xmlns="http://www.w3.org/2000/svg">
<g clip-path="url(#clip0_83_1372)">
<path d="M147.339 68.3719L81.6363 2.74688C79.8037 0.916406 77.4008 0 75.0003 0C72.5998 0 70.1969 0.916406 68.3643 2.74688L2.66112 68.3719C-1.00417 72.0422 -0.821143 77.7844 2.84415 81.4453C6.51884 85.125 11.8901 85.6664 15.5671 81.9938L18.7725 78.7898V140.625C18.7725 145.807 22.9704 150 28.1586 150H65.7033V112.5H84.4756V150H122.02C127.208 150 131.406 145.807 131.406 140.625V78.9727L134.211 81.7734C137.876 85.4344 143.477 85.1063 147.154 81.443C150.822 77.7844 151.014 72.0328 147.339 68.3719Z" fill="#231F20"/>
</g>
<defs>
<clipPath id="clip0_83_1372">
<rect width="150" height="150" fill="white"/>
</clipPath>
</defs>
</svg>
