<svg width="90" height="90" viewBox="0 0 90 90" fill="none" xmlns="http://www.w3.org/2000/svg">
<path d="M82.5 3.75H67.5C66.5054 3.75 65.5516 4.14509 64.8483 4.84835C64.1451 5.55161 63.75 6.50544 63.75 7.5V33.75H56.25V26.25C56.2503 25.6107 56.0872 24.982 55.7761 24.4235C55.465 23.865 55.0163 23.3953 54.4726 23.059C53.9289 22.7227 53.3083 22.531 52.6697 22.5021C52.031 22.4732 51.3956 22.608 50.8238 22.8937L33.75 31.4325V26.25C33.7503 25.6107 33.5872 24.982 33.2761 24.4235C32.965 23.865 32.5163 23.3953 31.9726 23.059C31.4289 22.7227 30.8083 22.531 30.1697 22.5021C29.531 22.4732 28.8956 22.608 28.3237 22.8937L5.82375 34.1437C5.20038 34.4552 4.67613 34.9343 4.30984 35.5271C3.94354 36.12 3.74968 36.8031 3.75 37.5V82.5C3.75 83.4946 4.14509 84.4484 4.84835 85.1517C5.55161 85.8549 6.50544 86.25 7.5 86.25H82.5C83.4946 86.25 84.4484 85.8549 85.1517 85.1517C85.8549 84.4484 86.25 83.4946 86.25 82.5V7.5C86.25 6.50544 85.8549 5.55161 85.1517 4.84835C84.4484 4.14509 83.4946 3.75 82.5 3.75ZM78.75 11.25V18.75H71.25V11.25H78.75ZM11.25 78.75V39.8175L26.25 32.3175V37.5C26.2497 38.1393 26.4128 38.768 26.7239 39.3265C27.035 39.885 27.4837 40.3547 28.0274 40.691C28.5711 41.0273 29.1917 41.219 29.8303 41.2479C30.469 41.2768 31.1044 41.142 31.6762 40.8563L48.75 32.3175V37.5C48.75 38.4946 49.1451 39.4484 49.8484 40.1516C50.5516 40.8549 51.5054 41.25 52.5 41.25H67.5C68.4946 41.25 69.4484 40.8549 70.1517 40.1516C70.8549 39.4484 71.25 38.4946 71.25 37.5V26.25H78.75V78.75H11.25ZM18.75 48.75H30V56.25H18.75V48.75ZM37.5 48.75H52.5V56.25H37.5V48.75ZM60 48.75H71.25V56.25H60V48.75ZM18.75 63.75H30V71.25H18.75V63.75ZM37.5 63.75H52.5V71.25H37.5V63.75ZM60 63.75H71.25V71.25H60V63.75Z" fill="black"/>
</svg>
