<svg width="150" height="150" viewBox="0 0 150 150" fill="none" xmlns="http://www.w3.org/2000/svg">
<g clip-path="url(#clip0_21_1016)">
<path d="M35.4373 127.32L60.8157 96.5457L72.4246 111.353L50.0491 139.807C41.4798 150.696 25.6228 139.221 35.4373 127.32ZM65.076 57.239C67.493 49.3533 66.3821 42.615 57.3001 32.6052L35.1077 5.90847C31.9583 2.20974 24.5364 7.64186 27.637 12.1218L45.386 33.9846C48.743 38.0618 42.5052 43.4573 39.0384 39.2581L20.679 16.6507C17.261 12.7322 10.1932 17.908 13.7698 22.388C18.9456 28.6135 26.9534 38.782 32.1292 45.0076C35.7181 48.6575 30.2615 54.0652 26.7215 49.512L8.49638 27.051C5.82304 24.1458 1.45292 25.9524 0.293252 29.346C-0.951865 32.9715 2.1121 35.6204 4.1995 38.3059L24.5364 64.5755C30.8475 71.8875 37.9031 76.221 46.1062 73.7673C47.3636 73.3889 48.9016 72.6199 50.5496 71.6067L105.188 142.139C108.13 145.935 113.806 146.338 117.493 143.274L118.335 142.578C122.486 139.124 123.157 132.813 119.605 128.736L61.7434 62.2561C63.428 60.3762 64.6609 58.594 65.076 57.239ZM80.5423 72.6199L89.5388 61.7068C77.9666 33.0203 120.85 -5.21214 141.638 12.366C166.895 33.7405 129.358 85.2542 102.979 72.5222L92.322 86.0598L80.5423 72.6199Z" fill="black"/>
</g>
<defs>
<clipPath id="clip0_21_1016">
<rect width="150" height="150" fill="white"/>
</clipPath>
</defs>
</svg>
