<svg width="90" height="90" viewBox="0 0 90 90" fill="none" xmlns="http://www.w3.org/2000/svg">
<g clip-path="url(#clip0_21_1020)">
<path d="M88.9167 31.7145L49.0896 13.3816C47.7977 12.7866 46.4217 12.4863 45 12.4863C43.5783 12.4863 42.2026 12.7866 40.9105 13.3816L1.08334 31.7145C0.425039 32.0188 0 32.682 0 33.4068C0 34.1315 0.425039 34.7947 1.08334 35.099L40.9105 53.4319C42.2023 54.027 43.5783 54.3286 45 54.3286C46.4217 54.3286 47.7977 54.027 49.0899 53.4319L80.5217 38.9641V53.533C79.2744 53.6736 78.3016 54.7353 78.3016 56.0182C78.3016 57.136 79.0413 58.1037 80.0956 58.412L77.9701 72.4378H87.7569L85.6317 58.412C86.6856 58.1037 87.4253 57.136 87.4253 56.0182C87.4253 54.7353 86.4526 53.6736 85.2052 53.533V36.8078L88.917 35.099C89.5751 34.7947 90.0004 34.1315 90.0004 33.4068C90.0004 32.682 89.575 32.0188 88.9167 31.7145Z" fill="black"/>
<path d="M45.0003 60.9666C43.0234 60.9666 41.1079 60.5463 39.3074 59.7178L19.8271 50.75V68.6161C19.8271 72.5384 31.6794 77.5143 45.0003 77.5143C58.3213 77.5143 70.1737 72.5383 70.1737 68.6161V50.75L50.6924 59.7178C48.8929 60.5463 46.9778 60.9666 45.0003 60.9666Z" fill="black"/>
</g>
<defs>
<clipPath id="clip0_21_1020">
<rect width="90" height="90" fill="white"/>
</clipPath>
</defs>
</svg>
