<svg width="90" height="90" viewBox="0 0 90 90" fill="none" xmlns="http://www.w3.org/2000/svg">
<g clip-path="url(#clip0_21_1029)">
<path d="M50.2918 15.627C32.6756 15.6284 18.3998 29.9043 18.3984 47.5203C18.3998 65.138 32.6757 79.4137 50.2918 79.4151C67.9095 79.4137 82.1854 65.1378 82.1866 47.5203C82.1854 29.9041 67.9095 15.6284 50.2918 15.627ZM31.5404 28.7689C33.3316 26.9793 35.378 25.4449 37.6157 24.2249C36.4317 26.0383 35.3988 28.0802 34.5364 30.3151H30.1348C30.5876 29.7854 31.0477 29.2614 31.5404 28.7689ZM27.0247 34.7952H33.1268C32.2839 38.0436 31.7868 41.5784 31.6325 45.2795H23.8876C24.205 41.5028 25.2943 37.9517 27.0247 34.7952ZM27.0275 60.2469C25.2943 57.0888 24.205 53.5377 23.8874 49.7596H31.6012C31.7554 53.4697 32.2778 56.9955 33.1236 60.2469H27.0275ZM31.5404 66.2716C31.0478 65.7791 30.5878 65.2567 30.1366 64.7269H34.5381C35.1629 66.3474 35.8707 67.8712 36.6632 69.2752C36.9704 69.8152 37.2984 70.3213 37.6293 70.8245C35.3838 69.6032 33.336 68.0672 31.5404 66.2716ZM48.0526 73.926C47.83 73.9083 47.6057 73.8979 47.3832 73.8726C46.6532 73.5727 45.9274 73.1765 45.2047 72.6379C43.0368 71.0277 40.9784 68.287 39.3848 64.7269H48.0526V73.926ZM48.0526 60.2469H37.779C36.8544 57.0828 36.2817 53.5349 36.1124 49.7596H48.0526V60.2469ZM48.0526 45.2795H36.0797C36.249 41.5058 36.8426 37.9593 37.7641 34.7952H48.0526V45.2795ZM48.0526 30.3152H39.3966C39.7646 29.4931 40.1489 28.7023 40.5645 27.9705C41.9357 25.5382 43.5429 23.6433 45.2047 22.4028C45.9275 21.8654 46.6532 21.4708 47.3818 21.1709C47.6043 21.1458 47.83 21.1354 48.0526 21.1161V30.3152ZM73.5605 34.7952C75.2909 37.9517 76.3801 41.5028 76.6975 45.2795H68.9825C68.8281 41.571 68.3057 38.0468 67.4599 34.7952H73.5605ZM69.0447 28.7689C69.5374 29.2614 69.9974 29.7854 70.4501 30.3152H66.0457C65.4224 28.6947 64.7129 27.1707 63.9191 25.7653C63.6134 25.2267 63.284 24.7206 62.956 24.216C65.1983 25.4387 67.2477 26.9747 69.0447 28.7689ZM52.5311 21.1161C52.7537 21.1354 52.9792 21.1458 53.2019 21.1709C53.9289 21.4708 54.6563 21.8654 55.3788 22.4028C57.5484 24.0128 59.6053 26.7567 61.2005 30.3152H52.5311V21.1161ZM52.5311 34.7952H62.8061C63.7293 37.9591 64.302 41.5072 64.4711 45.2795H52.5311V34.7952ZM60.0206 67.07C58.6479 69.5023 57.0408 71.3988 55.3788 72.6379C54.6563 73.1765 53.9289 73.5727 53.2003 73.8726C52.9778 73.8979 52.7537 73.9081 52.5311 73.926V64.7269H61.1887C60.819 65.5474 60.4363 66.34 60.0206 67.07ZM52.5311 60.2469V49.7596H64.5037C64.3346 53.5349 63.741 57.083 62.8194 60.2469H52.5311ZM69.0447 66.2716C67.2535 68.0643 65.2072 69.5972 62.9694 70.8156C64.152 69.0038 65.1849 66.9618 66.0471 64.7269H70.4483C69.9974 65.2567 69.5374 65.7791 69.0447 66.2716ZM73.5574 60.2469H67.4569C68.3012 56.9999 68.7969 53.4651 68.9512 49.7596H76.6975C76.3801 53.5377 75.2909 57.0888 73.5574 60.2469Z" fill="black"/>
<path d="M70.6031 80.6839C64.2591 84.5689 57.2564 86.4151 50.3306 86.4151C37.2389 86.4137 24.4651 79.8115 17.1283 67.8313C13.2432 61.4874 11.3971 54.4844 11.3971 47.5586C11.3987 34.4656 18.0009 21.6961 29.9825 14.3564L28.1111 11.3008C15.03 19.3129 7.81049 33.271 7.81348 47.5586C7.8119 55.1211 9.83602 62.7859 14.0727 69.7025C22.0832 82.7808 36.0429 90.0017 50.3306 90.0002C57.8929 90.0002 65.5576 87.9776 72.4758 83.7409L70.6031 80.6855V80.6839Z" fill="black"/>
<path d="M42.9939 12.2726H59.7611C61.487 12.2726 62.8878 11.6896 62.8878 9.96076C62.8878 8.23476 59.5831 6.56238 57.8572 6.56238H54.3937L47.3448 0.216853C46.9917 -0.173382 45.5923 0.0818528 45.1679 0.0834348C44.6441 0.0864231 44.7584 0.923318 44.9602 1.41006L47.02 6.56238H42.0872L39.3819 2.26488C38.907 1.74703 38.1634 1.57195 37.5092 1.8256C36.8531 2.07943 36.4214 2.71013 36.4214 3.41203L36.377 6.56238V7.49279C36.3768 10.1327 39.5496 12.2726 42.9939 12.2726Z" fill="black"/>
</g>
<defs>
<clipPath id="clip0_21_1029">
<rect width="90" height="90" fill="white"/>
</clipPath>
</defs>
</svg>
