<svg width="150" height="150" viewBox="0 0 150 150" fill="none" xmlns="http://www.w3.org/2000/svg">
<path d="M75 2.34375C34.8633 2.34375 2.34375 34.8633 2.34375 75C2.34375 115.137 34.8633 147.656 75 147.656C115.137 147.656 147.656 115.137 147.656 75C147.656 34.8633 115.137 2.34375 75 2.34375ZM98.4375 51.5625C103.623 51.5625 107.812 55.752 107.812 60.9375C107.812 66.123 103.623 70.3125 98.4375 70.3125C93.252 70.3125 89.0625 66.123 89.0625 60.9375C89.0625 55.752 93.252 51.5625 98.4375 51.5625ZM51.5625 51.5625C56.748 51.5625 60.9375 55.752 60.9375 60.9375C60.9375 66.123 56.748 70.3125 51.5625 70.3125C46.377 70.3125 42.1875 66.123 42.1875 60.9375C42.1875 55.752 46.377 51.5625 51.5625 51.5625ZM108.633 101.426C100.283 111.445 88.0371 117.188 75 117.188C61.9629 117.188 49.7168 111.445 41.3672 101.426C37.3828 96.6504 44.5898 90.6738 48.5742 95.4199C55.1367 103.301 64.7461 107.783 75 107.783C85.2539 107.783 94.8633 103.271 101.426 95.4199C105.352 90.6738 112.588 96.6504 108.633 101.426Z" fill="black"/>
</svg>
