<svg width="150" height="150" viewBox="0 0 150 150" fill="none" xmlns="http://www.w3.org/2000/svg">
<g clip-path="url(#clip0_83_1363)">
<path d="M148.998 27.2734C149.078 24.2544 147.119 21.6191 145.249 19.2051C144.99 22.2361 142.329 27.2453 141.062 29.8334L93.2876 127.518C89.5807 135.092 84.9529 144.413 74.784 143.327C74.3955 143.304 6.81055 136.206 6.81055 136.206C8.72744 139.225 10.8755 143.111 14.6624 143.516L70.3309 149.382C76.7788 150.075 82.9021 150.979 88.7047 147.157C95.1362 142.929 98.4687 135.247 101.681 128.684L146.968 33.3405C147.92 31.3929 148.909 29.4944 148.998 27.2761C149.008 27.064 148.998 27.2427 148.998 27.2734Z" fill="black"/>
<path d="M70.0251 136.226C75.6512 136.829 82.4505 132.847 85.1162 127.393L100.641 95.6609L138.707 17.8173C141.383 12.3491 138.962 7.38676 133.338 6.78178L70.7742 0.0604942C65.1363 -0.542435 58.3538 3.43051 55.6807 8.89878L2.08707 118.474C-0.580996 123.928 1.82105 128.9 7.46129 129.505L70.0251 136.226ZM46.9412 120.431C45.7306 122.899 42.6644 124.687 40.1255 124.416C37.582 124.143 36.5083 121.913 37.7162 119.437C38.9241 116.974 41.9715 115.186 44.5057 115.457C47.0446 115.728 48.147 117.965 46.9412 120.431ZM64.359 14.186L126.014 20.8082L83.0956 108.533L21.4406 101.911L64.359 14.186Z" fill="black"/>
</g>
<defs>
<clipPath id="clip0_83_1363">
<rect width="150" height="150" fill="white"/>
</clipPath>
</defs>
</svg>
