<svg width="90" height="90" viewBox="0 0 90 90" fill="none" xmlns="http://www.w3.org/2000/svg">
<path d="M5 47.1643C5.02157 44.8167 5.76583 42.5324 7.13211 40.6202C8.4984 38.708 10.4208 37.2603 12.6393 36.4728L18.8438 20.5062C19.3965 19.2042 20.3122 18.0876 21.4823 17.2889C22.6524 16.4902 24.0277 16.0429 25.4452 16H64.5548C65.9722 16.0429 67.3476 16.4902 68.5177 17.2889C69.6878 18.0876 70.6035 19.2042 71.1562 20.5062L77.3664 36.4728C79.5838 37.2612 81.505 38.7094 82.8702 40.6214C84.2354 42.5335 84.9789 44.8174 85 47.1643V63.278C84.9985 63.9898 84.7142 64.672 84.2093 65.1753C83.7044 65.6787 83.0201 65.9621 82.3061 65.9636H78.5006V74.3144C78.4991 75.0262 78.2148 75.7084 77.71 76.2118C77.2051 76.7151 76.5208 76.9985 75.8067 77H70.2602C69.5462 76.9985 68.8618 76.7151 68.357 76.2118C67.8521 75.7084 67.5678 75.0262 67.5663 74.3144V65.9636H22.4337V74.3144C22.4322 75.0262 22.1479 75.7084 21.643 76.2118C21.1382 76.7151 20.4538 76.9985 19.7398 77H14.1933C13.4792 76.9985 12.7949 76.7151 12.29 76.2118C11.7852 75.7084 11.5009 75.0262 11.4994 74.3144V65.9636H7.69389C6.97989 65.9621 6.29555 65.6787 5.79068 65.1753C5.2858 64.672 5.0015 63.9898 5 63.278V47.1643ZM22.808 47.1983C22.808 46.0465 22.4654 44.9206 21.8236 43.9629C21.1817 43.0052 20.2694 42.2588 19.202 41.818C18.1346 41.3773 16.9601 41.2619 15.8269 41.4866C14.6938 41.7113 13.6529 42.266 12.836 43.0804C12.019 43.8948 11.4627 44.9325 11.2373 46.0621C11.0119 47.1918 11.1276 48.3627 11.5697 49.4268C12.0118 50.4909 12.7606 51.4004 13.7212 52.0403C14.6818 52.6802 15.8112 53.0218 16.9665 53.0218C17.7337 53.0218 18.4933 52.8712 19.202 52.5785C19.9107 52.2858 20.5547 51.8569 21.0971 51.3161C21.6395 50.7753 22.0698 50.1334 22.3634 49.4268C22.6569 48.7203 22.808 47.963 22.808 47.1983ZM19.6491 35.7604H70.3396L65.2921 22.7734C65.1123 22.5193 64.8464 22.3386 64.5435 22.2645H25.4452C25.1464 22.341 24.8849 22.5215 24.7079 22.7734L19.6491 35.7604ZM78.8636 47.1983C78.8636 46.0462 78.5209 44.9201 77.8787 43.9623C77.2366 43.0045 76.324 42.2581 75.2562 41.8175C74.1885 41.3769 73.0137 41.2619 71.8804 41.4871C70.7471 41.7122 69.7063 42.2674 68.8895 43.0824C68.0728 43.8974 67.5169 44.9356 67.2922 46.0656C67.0674 47.1956 67.1839 48.3667 67.6269 49.4307C68.0699 50.4948 68.8195 51.4039 69.7809 52.0431C70.7423 52.6823 71.8722 53.0229 73.0278 53.0218C74.577 53.0218 76.0629 52.4082 77.1583 51.3161C78.2538 50.224 78.8636 48.7428 78.8636 47.1983Z" fill="black"/>
</svg>
