<svg width="90" height="90" viewBox="0 0 90 90" fill="none" xmlns="http://www.w3.org/2000/svg">
<path d="M57.6561 8.4375C55.9686 8.4375 54.5624 8.71875 52.8749 9C49.7811 5.90625 44.1561 5.90625 41.0624 9C38.8124 11.25 37.1249 17.7188 36.5624 21.0938C34.5936 22.2188 31.7811 22.2187 30.0936 20.25C28.9686 19.125 27.2811 19.125 26.1561 20.25C25.0311 21.375 25.0311 23.0625 26.1561 24.1875C28.1249 26.7188 30.9374 27.5625 33.7499 27.5625C35.9999 27.5625 38.2499 26.7188 40.2186 25.3125C43.5936 24.75 50.6249 23.0625 53.1561 20.8125C54.8436 19.125 55.6874 16.5938 55.6874 14.0625C56.2499 14.0625 56.8124 14.0625 57.6561 14.0625C67.7811 14.0625 75.9374 22.2188 75.9374 32.3438C75.9374 42.4688 67.7811 50.625 57.6561 50.625H48.6561L66.3749 38.8125C67.4999 38.25 67.7811 36.8438 67.4999 35.7188C67.2186 34.5938 66.0936 33.75 64.6874 33.75H14.0624C12.9374 33.75 11.8124 34.5938 11.2499 35.7188C10.9686 36.8438 11.2499 38.25 12.3749 38.8125L30.3749 50.625C25.8749 51.75 22.4999 55.6875 22.4999 60.4688C22.4999 65.8125 26.9999 70.3125 32.3436 70.3125H36.5624V78.75H30.9374C29.2499 78.75 28.1249 79.875 28.1249 81.5625C28.1249 83.25 29.2499 84.375 30.9374 84.375H43.5936C48.9374 84.375 53.4374 79.875 53.4374 74.5312C53.4374 69.1875 48.9374 64.6875 43.5936 64.6875H42.1874V56.25H57.6561C70.8749 56.25 81.5624 45.5625 81.5624 32.3438C81.5624 19.125 70.8749 8.4375 57.6561 8.4375ZM28.1249 60.4688C28.1249 58.2188 30.0936 56.25 32.3436 56.25H36.5624V64.6875H32.3436C30.0936 64.6875 28.1249 62.7188 28.1249 60.4688ZM47.8124 74.5312C47.8124 76.7812 45.8436 78.75 43.5936 78.75H42.1874V70.3125H43.5936C45.8436 70.3125 47.8124 72.2812 47.8124 74.5312Z" fill="black"/>
</svg>
