<svg width="133" height="69" viewBox="0 0 133 69" fill="none" xmlns="http://www.w3.org/2000/svg">
<g clip-path="url(#clip0_123_636)">
<path d="M1.16171 57.7974C4.46753 56.5359 7.78107 55.2975 11.1126 54.1003C14.4468 52.9082 17.7964 51.7522 21.1691 50.658C24.5419 49.5638 27.9404 48.5288 31.3724 47.589C34.8044 46.6493 38.275 45.81 41.8073 45.174C43.5761 44.8651 45.3629 44.6025 47.1729 44.4403C48.9854 44.2806 50.8237 44.2085 52.7057 44.3553C53.648 44.4403 54.6007 44.5793 55.561 44.8316C56.5162 45.0865 57.4945 45.4624 58.4008 46.0906C59.3045 46.7085 60.1052 47.6173 60.5506 48.6472C60.7823 49.157 60.942 49.6822 61.0398 50.1971C61.1454 50.7146 61.1943 51.2218 61.2149 51.7161C61.2561 52.7074 61.1763 53.6394 61.0964 54.5354C61.0141 55.4236 60.9136 56.2835 60.9214 57.0328C60.9214 57.4035 60.96 57.7433 61.0321 57.9673C61.1119 58.1965 61.1711 58.2634 61.2741 58.3407C61.3899 58.4179 61.6062 58.4977 61.8457 58.5003C62.0928 58.508 62.3992 58.4488 62.7236 58.3407C63.3776 58.1192 64.083 57.715 64.7653 57.2593C65.4527 56.8036 66.1298 56.281 66.7992 55.7429C68.1406 54.6615 69.464 53.5029 70.8028 52.3495C73.4778 50.0401 76.2352 47.7461 79.2476 45.7636C80.7511 44.7724 82.3217 43.8584 83.9643 43.0783C85.6043 42.2956 87.3216 41.6442 89.1007 41.1936C90.8772 40.7405 92.7154 40.4856 94.5563 40.4831C95.0172 40.4702 95.478 40.5088 95.9363 40.5242C96.3971 40.5448 96.8554 40.6092 97.3137 40.653C98.2251 40.7894 99.1366 40.9542 100.02 41.2117C100.91 41.446 101.77 41.7755 102.617 42.1179C103.452 42.4887 104.278 42.8775 105.063 43.3254C106.652 44.1982 108.127 45.2152 109.579 46.2219C111.029 47.2311 112.453 48.2558 113.925 49.1621C115.395 50.0787 116.925 50.8717 118.529 51.4484C120.133 52.0303 121.816 52.3572 123.518 52.4499C123.943 52.4757 124.373 52.4654 124.8 52.4731L126.083 52.3933L126.404 52.3727C126.51 52.365 126.616 52.3418 126.724 52.3289L127.36 52.2336L127.996 52.1384C128.207 52.0998 128.413 52.0431 128.624 51.9968L129.252 51.85C129.461 51.8037 129.672 51.7548 129.875 51.6827L131.106 51.2913L132.308 50.8125L132.609 50.6914L132.9 50.5524L133.485 50.2718C135.035 49.5071 136.523 48.6034 137.931 47.5761C140.743 45.5139 143.294 43.086 145.699 40.4985C143.636 43.3641 141.227 46.0108 138.428 48.2327C137.022 49.332 135.516 50.3155 133.92 51.1369L133.317 51.4407L133.016 51.5926L132.705 51.7264L131.458 52.2491L130.176 52.6842C129.965 52.764 129.746 52.8207 129.525 52.8722L128.868 53.0395C128.65 53.0936 128.431 53.1554 128.209 53.2017L127.54 53.315L126.87 53.4283C126.76 53.4463 126.646 53.4695 126.536 53.4798L126.196 53.5081L124.839 53.6188C124.386 53.6188 123.93 53.6394 123.477 53.6188C121.659 53.557 119.839 53.2378 118.114 52.6507C116.387 52.0663 114.754 51.2579 113.215 50.3387C111.667 49.4273 110.205 48.4181 108.742 47.4423C107.28 46.4716 105.825 45.5139 104.306 44.7157C103.552 44.3038 102.772 43.9588 101.989 43.6292C101.196 43.328 100.401 43.0371 99.582 42.8414C98.7684 42.62 97.9368 42.4887 97.1026 42.3806C96.6829 42.3522 96.2658 42.3007 95.8436 42.2879C95.4214 42.2853 95.0017 42.2544 94.582 42.275C92.8982 42.311 91.2196 42.5762 89.5898 43.0268C87.9575 43.4722 86.3741 44.1107 84.8474 44.8754C83.3206 45.64 81.8505 46.5308 80.4319 47.5092C77.5869 49.4633 74.9531 51.7419 72.3295 54.0797C71.0139 55.2485 69.706 56.438 68.3208 57.5914C67.6257 58.1656 66.9151 58.7372 66.1427 59.2701C65.7591 59.5379 65.3549 59.7953 64.9275 60.0373C64.5001 60.2768 64.047 60.5034 63.5372 60.6836C63.03 60.8612 62.4636 61.0028 61.8251 61.0028C61.184 60.9977 60.5172 60.8509 59.8864 60.457C59.8091 60.4055 59.7293 60.3566 59.6547 60.3C59.5826 60.2382 59.5105 60.1738 59.441 60.1094C59.2942 59.9833 59.1809 59.8339 59.0651 59.682C58.9441 59.5327 58.8745 59.3757 58.7844 59.216C58.7046 59.059 58.6531 58.9071 58.5913 58.7475C58.3905 58.1295 58.3493 57.5837 58.3313 57.0739C58.3081 56.057 58.4085 55.1636 58.4729 54.2934C58.5398 53.4309 58.5888 52.6018 58.5424 51.8294C58.5218 51.4432 58.4781 51.0699 58.3982 50.7275C58.3261 50.3773 58.218 50.0581 58.079 49.7672C57.8086 49.1801 57.3916 48.7296 56.8406 48.3563C56.2896 47.9829 55.597 47.7152 54.8478 47.5324C54.0986 47.3496 53.3005 47.244 52.4843 47.1822C50.8469 47.0818 49.1502 47.1694 47.4561 47.3496C45.7594 47.5324 44.0576 47.8104 42.3583 48.1348C38.9624 48.8094 35.5793 49.6616 32.2246 50.6322C28.8673 51.5977 25.5305 52.6636 22.2119 53.7913C18.8932 54.919 15.5899 56.1059 12.2995 57.334C9.01174 58.5672 5.73682 59.8391 2.46962 61.1367H2.46447C1.54018 61.5049 0.492303 61.0543 0.124131 60.13C-0.24404 59.2057 0.209094 58.1579 1.13339 57.7897C1.13853 57.7897 1.15141 57.782 1.15656 57.782L1.16171 57.7974Z" fill="url(#paint0_linear_123_636)"/>
<path d="M15.9218 44.661C16.8172 39.9453 17.6529 28.8427 18.5482 24.1271C18.6676 23.4108 18.9661 22.6945 18.9661 21.8588C18.9661 20.7843 18.4289 20.2471 17.3544 20.2471C16.5784 20.2471 15.6234 20.6053 14.728 20.6053C14.1311 20.6053 13.4148 20.068 13.2954 19.3517C13.2954 18.1579 15.1458 17.9788 16.3994 17.6804C19.5033 17.1432 20.5778 15.8896 20.5778 12.9647C20.5778 12.4275 20.5181 11.7709 20.5181 11.174C20.5181 8.84603 21.4134 5.92115 24.2189 5.92115C25.4128 5.92115 25.5322 6.9359 25.5322 7.89097C25.5322 9.14449 25.2337 11.174 25.2337 12.4275C25.2337 13.4423 25.5322 13.8601 26.3081 13.8601C27.6214 13.8601 29.8299 12.0694 31.6804 12.0694C32.0385 12.0694 32.4564 12.1888 32.8145 12.2484C32.5161 12.6066 32.3967 13.1438 32.0385 13.3826C29.1733 15.3524 24.4577 17.6207 23.8608 20.3068C22.9654 24.3658 22.2491 34.7522 21.3537 38.8709C21.2941 39.1693 21.2344 39.4081 21.2344 39.6469C21.2344 40.1244 21.4134 40.4229 22.07 40.4229C22.1894 40.4229 22.3685 40.4229 22.5476 40.3632C22.7863 40.3632 23.622 41.1392 23.622 41.3779C22.667 43.9447 22.667 46.9889 20.2196 48.7797C19.6824 49.2572 18.787 49.7347 18.2498 49.7347C16.7575 49.7347 16.2203 47.0486 16.2203 46.2726C16.2203 45.7354 16.28 45.1982 16.28 44.7206C16.1606 44.7206 16.0412 44.661 15.9218 44.661ZM43.3244 32.9614C42.7872 36.3041 42.3097 39.6469 41.6531 43.0493C41.5337 43.7656 41.474 44.2431 41.474 44.6013C41.474 45.9742 44.0407 45.1385 44.0407 46.6308V46.7502C42.9066 48.4812 41.1755 51.9433 39.7429 51.9433C38.5491 51.9433 38.0119 50.8689 38.0119 49.1975C38.0119 48.4812 38.0716 47.7052 38.191 46.9889C38.8476 42.6911 39.6236 38.453 40.1011 34.1552C40.1011 33.9762 40.1608 33.7971 40.1608 33.5583C40.1608 32.6033 39.8026 31.6482 39.6832 30.5738C38.8476 31.4094 37.7134 32.1257 37.1762 33.0211C34.9079 36.5429 32.6993 40.1244 30.4311 43.7059C30.1923 44.064 29.6551 44.4819 29.2372 44.4819C27.7449 44.4819 28.1031 41.4973 28.1031 39.5872C28.1031 38.0949 28.1628 36.6623 28.4015 35.2297C29.8938 26.3357 31.8637 17.5013 33.4753 8.60727C33.9529 6.81652 33.6544 3.29472 35.4451 3.29472C36.2808 3.29472 37.594 4.72732 37.594 5.80177C37.594 6.15991 37.5344 6.57776 37.4747 6.87621C36.7584 14.9943 34.9079 22.5154 33.4753 30.2156V30.5141C33.4753 31.1707 33.5947 31.7676 33.6544 32.2451C34.2513 31.887 34.9676 31.5885 35.3855 31.0513C37.0568 29.4993 37.8328 27.2907 40.3995 27.2907C41.5337 27.2907 43.1454 29.2605 43.1454 31.0513C43.1454 31.6482 43.026 32.3048 43.026 32.9017C43.1454 32.9614 43.2647 32.9614 43.3244 32.9614ZM46.4055 42.8702C46.5249 36.6623 49.3901 25.7387 55.2399 25.7387C57.2097 25.7387 58.8811 26.9923 58.8811 29.1412C58.8811 31.2304 56.7919 34.1552 55.6577 36.0654C54.2251 38.3933 51.1809 39.229 51.1809 42.2733C51.1809 43.4074 51.0018 45.0788 52.9716 45.0788C54.1654 45.0788 55.2399 44.4222 56.4337 44.4222C57.0903 44.4222 57.4485 44.7206 57.4485 45.3176C57.4485 47.7649 53.7476 49.675 51.4793 49.675C46.8831 49.675 46.6443 45.616 46.4055 42.8702ZM56.6128 30.4544C56.195 29.9171 55.8368 29.0815 55.4787 29.0815C54.1654 29.0815 53.3298 32.4839 52.8522 33.8568C52.8522 33.9165 52.7925 33.9165 52.7925 33.9762C52.7925 34.2149 53.2104 34.7522 53.5088 34.7522C54.4042 34.7522 55.7174 31.8273 56.6128 30.4544ZM85.8033 32.3048C84.5498 37.2592 83.8932 42.8702 81.9831 47.2277C81.8637 47.7649 81.0877 48.1231 80.6102 48.5409C80.3714 47.944 79.8342 47.3471 79.8342 46.8695C80.3714 44.1834 81.0877 41.557 81.6846 38.9903L82.9978 33.1405C82.9978 32.7823 82.8785 32.3645 82.8188 32.0063C82.4606 32.1257 81.9234 32.1257 81.6846 32.3645C79.476 34.8118 77.8047 37.8561 75.7155 40.6019C75.3573 41.1392 74.5216 41.3182 73.9247 41.557C73.686 41.0198 73.3278 40.4825 73.3278 39.9453C73.3278 38.0949 74.1635 36.1848 74.1635 34.3343C74.1635 33.7971 73.9247 33.3196 73.8053 32.842C69.9851 35.2894 67.0005 39.4081 65.6873 43.8253C65.1501 45.5563 63.8369 47.2277 62.8818 47.2277C62.1655 47.2277 61.2701 46.1532 61.2701 44.4222V44.0043C62.0461 39.2887 62.9415 34.5731 63.8966 29.7381C64.195 28.1861 65.4485 27.7086 66.7617 27.7086C68.1347 27.7086 68.4928 29.0815 68.4928 30.335C68.4928 31.29 68.1347 32.2451 68.1347 33.3196C68.1347 33.8568 68.3137 34.4537 68.3734 35.0506C69.03 34.7522 69.7463 34.7522 70.1642 34.3343C71.8952 33.0211 73.686 30.3947 75.3573 30.3947C76.1333 30.3947 76.6705 33.2002 76.7899 34.6925C77.4465 33.8568 78.2225 33.4986 78.8194 32.7823C80.3714 30.9319 81.2668 28.8427 83.7738 28.8427C84.3111 28.8427 85.4452 30.0962 85.4452 31.7079V32.2451C85.5049 32.2451 85.6243 32.3048 85.8033 32.3048ZM88.2013 42.8702C88.3207 36.6623 91.1858 25.7387 97.0356 25.7387C99.0054 25.7387 100.677 26.9923 100.677 29.1412C100.677 31.2304 98.5876 34.1552 97.4535 36.0654C96.0209 38.3933 92.9766 39.229 92.9766 42.2733C92.9766 43.4074 92.7975 45.0788 94.7673 45.0788C95.9612 45.0788 97.0356 44.4222 98.2294 44.4222C98.8861 44.4222 99.2442 44.7206 99.2442 45.3176C99.2442 47.7649 95.5433 49.675 93.275 49.675C88.6788 49.675 88.44 45.616 88.2013 42.8702ZM98.4085 30.4544C97.9907 29.9171 97.6325 29.0815 97.2744 29.0815C95.9612 29.0815 95.1255 32.4839 94.648 33.8568C94.648 33.9165 94.5883 33.9165 94.5883 33.9762C94.5883 34.2149 95.0061 34.7522 95.3046 34.7522C96.1999 34.7522 97.5131 31.8273 98.4085 30.4544ZM108.557 35.8863C106.647 35.8266 103.126 35.8266 103.126 33.7374C103.126 33.4389 103.185 33.1405 103.424 32.7823C105.215 29.7381 107.244 26.6938 109.333 23.8883C109.632 23.4705 110.348 23.2317 111.124 23.2317C112.079 23.2317 112.736 23.5898 112.736 25.5C112.736 27.231 112.079 30.0365 111.005 30.0365C110.408 30.0365 109.632 28.4845 109.035 28.4845C108.14 28.4845 107.662 31.2304 107.364 32.5436C108.498 32.7823 109.513 33.0808 110.647 33.0808H111.244C114.646 33.0808 116.735 34.9312 116.735 37.7367C116.735 42.8105 111.661 47.4665 108.02 50.451C105.752 52.3015 103.424 53.9131 100.499 53.9131C98.7681 53.9131 97.6936 52.779 97.6936 51.4061C97.6936 48.4812 101.693 44.9594 104.26 43.3477C104.379 43.2284 104.618 43.2284 104.797 43.2284H105.454C105.454 43.5865 105.454 44.1237 105.215 44.4819C104.737 45.3176 103.126 47.2277 103.126 48.0634C103.126 48.7797 103.305 48.7797 103.902 48.7797C104.737 48.7797 107.304 46.5711 108.02 45.7354C109.871 43.5865 112.855 40.2438 112.855 37.9158C112.855 36.4832 111.423 35.7072 109.513 35.7072C109.214 35.7072 108.856 35.8863 108.557 35.8863ZM125.125 45.7951C125.125 47.4068 123.334 49.7944 121.902 49.7944C120.529 49.7944 118.499 48.0037 118.499 46.5114C118.499 44.6013 120.469 42.9299 122.558 42.9299C123.752 42.9299 125.125 44.2431 125.125 45.7951Z" fill="white"/>
</g>
<defs>
<linearGradient id="paint0_linear_123_636" x1="0.000549263" y1="50.882" x2="147.48" y2="50.882" gradientUnits="userSpaceOnUse">
<stop offset="0.2" stop-color="#2B44E9"/>
<stop offset="0.43" stop-color="#0F90F6"/>
<stop offset="0.54" stop-color="#04B2FD"/>
<stop offset="0.74" stop-color="#02CAFD"/>
<stop offset="1" stop-color="#00E6FF"/>
</linearGradient>
<clipPath id="clip0_123_636">
<rect width="132.593" height="69" fill="white"/>
</clipPath>
</defs>
</svg>
