<svg width="237" height="123" viewBox="0 0 237 123" fill="none" xmlns="http://www.w3.org/2000/svg">
<g clip-path="url(#clip0_85_861)">
<path d="M2.07563 103.031C7.98452 100.783 13.9072 98.575 19.8621 96.4409C25.8216 94.3159 31.8088 92.2552 37.8373 90.3046C43.8659 88.3541 49.9404 86.5091 56.0748 84.8339C62.2092 83.1587 68.4126 81.6625 74.7265 80.5289C77.888 79.9781 81.0818 79.51 84.3169 79.2209C87.5567 78.9363 90.8425 78.8078 94.2065 79.0694C95.8908 79.2209 97.5935 79.4687 99.3101 79.9185C101.017 80.3728 102.766 81.0429 104.386 82.1628C106.001 83.2643 107.432 84.8844 108.229 86.7202C108.643 87.6289 108.928 88.5652 109.103 89.4831C109.292 90.4056 109.379 91.3097 109.416 92.1909C109.49 93.9579 109.347 95.6193 109.204 97.2165C109.057 98.7999 108.877 100.333 108.891 101.668C108.891 102.329 108.96 102.935 109.089 103.334C109.232 103.743 109.338 103.862 109.522 104C109.729 104.138 110.115 104.28 110.543 104.284C110.985 104.298 111.533 104.193 112.113 104C113.282 103.605 114.542 102.885 115.762 102.072C116.991 101.26 118.201 100.328 119.398 99.369C121.795 97.4414 124.161 95.3761 126.554 93.32C131.335 89.2031 136.264 85.1138 141.648 81.5799C144.335 79.8129 147.143 78.1836 150.079 76.793C153.01 75.3978 156.08 74.2366 159.26 73.4334C162.435 72.6257 165.721 72.1713 169.011 72.1667C169.835 72.1438 170.659 72.2126 171.478 72.2401C172.301 72.2769 173.121 72.3916 173.94 72.4696C175.569 72.7129 177.198 73.0066 178.776 73.4656C180.369 73.8832 181.906 74.4707 183.42 75.0811C184.911 75.742 186.388 76.435 187.792 77.2336C190.631 78.7894 193.268 80.6023 195.863 82.3968C198.454 84.1959 200.999 86.0226 203.631 87.6381C206.259 89.272 208.993 90.6856 211.86 91.7136C214.727 92.7509 217.736 93.3337 220.778 93.499C221.538 93.5448 222.306 93.5265 223.07 93.5403L225.362 93.398L225.937 93.3613C226.126 93.3475 226.314 93.3062 226.508 93.2832L227.644 93.1134L228.781 92.9436C229.158 92.8748 229.527 92.7738 229.904 92.6912L231.027 92.4296C231.4 92.347 231.777 92.2598 232.141 92.1313L234.34 91.4337L236.489 90.58L237.028 90.3643L237.548 90.1165L238.592 89.6162C241.363 88.2531 244.023 86.6422 246.54 84.8109C251.565 81.1347 256.126 76.8068 260.424 72.1943C256.738 77.3024 252.43 82.0205 247.428 85.9813C244.916 87.941 242.223 89.6942 239.37 91.1583L238.293 91.6998L237.755 91.9706L237.198 92.2093L234.971 93.141L232.679 93.9166C232.302 94.0589 231.91 94.1598 231.515 94.2516L230.341 94.55C229.95 94.6463 229.559 94.7565 229.163 94.8391L227.967 95.041L226.77 95.243C226.572 95.2751 226.37 95.3164 226.172 95.3348L225.564 95.3853L223.139 95.5826C222.329 95.5826 221.515 95.6193 220.705 95.5826C217.456 95.4725 214.202 94.9034 211.119 93.8569C208.031 92.8151 205.113 91.374 202.361 89.7355C199.596 88.1108 196.982 86.3117 194.368 84.5723C191.754 82.842 189.154 81.1347 186.439 79.7119C185.09 78.9776 183.696 78.3626 182.297 77.7751C180.879 77.2382 179.457 76.7195 177.994 76.3707C176.54 75.976 175.053 75.742 173.562 75.5492C172.812 75.4987 172.067 75.4069 171.312 75.384C170.557 75.3794 169.807 75.3243 169.057 75.361C166.047 75.4253 163.047 75.898 160.134 76.7012C157.216 77.4952 154.386 78.6334 151.657 79.9965C148.928 81.3596 146.3 82.9476 143.765 84.6916C138.68 88.1751 133.972 92.2368 129.283 96.4041C126.931 98.4878 124.593 100.608 122.117 102.664C120.875 103.688 119.605 104.707 118.224 105.657C117.538 106.134 116.816 106.593 116.052 107.024C115.288 107.451 114.478 107.855 113.567 108.176C112.66 108.493 111.648 108.745 110.507 108.745C109.361 108.736 108.169 108.475 107.041 107.772C106.903 107.681 106.761 107.593 106.627 107.492C106.498 107.382 106.369 107.268 106.245 107.153C105.983 106.928 105.78 106.662 105.573 106.391C105.357 106.125 105.233 105.845 105.072 105.56C104.929 105.28 104.837 105.01 104.727 104.725C104.368 103.624 104.294 102.651 104.262 101.742C104.22 99.9289 104.4 98.3363 104.515 96.7851C104.635 95.2476 104.722 93.7697 104.639 92.3929C104.602 91.7044 104.524 91.039 104.381 90.4285C104.253 89.8044 104.059 89.2353 103.811 88.7166C103.328 87.6702 102.582 86.8671 101.597 86.2016C100.612 85.5361 99.3745 85.0588 98.0353 84.7329C96.6962 84.407 95.2696 84.2189 93.8107 84.1087C90.8839 83.9297 87.8512 84.0858 84.8232 84.4071C81.7905 84.7329 78.7486 85.2286 75.7113 85.8069C69.6413 87.0093 63.5944 88.5285 57.5981 90.2587C51.5971 91.9798 45.633 93.8799 39.7011 95.8901C33.7692 97.9003 27.8649 100.016 21.9836 102.205C16.1069 104.404 10.2533 106.671 4.41341 108.984H4.40421C2.75211 109.64 0.879122 108.837 0.221045 107.19C-0.437033 105.542 0.372909 103.674 2.02501 103.018C2.03421 103.018 2.05722 103.004 2.06642 103.004L2.07563 103.031Z" fill="url(#paint0_linear_85_861)"/>
<path d="M28.4389 80.5702C30.035 72.1641 31.5247 52.3725 33.1208 43.9664C33.3336 42.6895 33.8657 41.4126 33.8657 39.9229C33.8657 38.0076 32.908 37.0499 30.9927 37.0499C29.6094 37.0499 27.9069 37.6884 26.3108 37.6884C25.2467 37.6884 23.9699 36.7307 23.757 35.4538C23.757 33.3257 27.0556 33.0065 29.2902 32.4744C34.8233 31.5168 36.7386 29.2822 36.7386 24.0683C36.7386 23.1107 36.6322 21.9402 36.6322 20.8761C36.6322 16.7263 38.2283 11.5123 43.2295 11.5123C45.3576 11.5123 45.5704 13.3212 45.5704 15.0237C45.5704 17.2583 45.0384 20.8761 45.0384 23.1107C45.0384 24.9196 45.5704 25.6644 46.9537 25.6644C49.2946 25.6644 53.2317 22.4722 56.5303 22.4722C57.1687 22.4722 57.9136 22.685 58.552 22.7914C58.02 23.4299 57.8072 24.3875 57.1687 24.8132C52.0612 28.3246 43.6551 32.368 42.591 37.1563C40.9949 44.392 39.718 62.9067 38.1219 70.2488C38.0155 70.7808 37.9091 71.2065 37.9091 71.6321C37.9091 72.4833 38.2283 73.0154 39.3988 73.0154C39.6116 73.0154 39.9308 73.0154 40.2501 72.909C40.6757 72.909 42.1654 74.2923 42.1654 74.7179C40.4629 79.2934 40.4629 84.7201 36.1002 87.9123C35.1425 88.7636 33.5465 89.6148 32.5888 89.6148C29.9286 89.6148 28.971 84.8265 28.971 83.4432C28.971 82.4856 29.0774 81.5279 29.0774 80.6767C28.8646 80.6767 28.6517 80.5702 28.4389 80.5702ZM77.2871 59.7145C76.3294 65.6733 75.4781 71.6321 74.3077 77.6973C74.0949 78.9741 73.9885 79.8254 73.9885 80.4638C73.9885 82.9112 78.5639 81.4215 78.5639 84.0817V84.2945C76.5422 87.3803 73.4564 93.5519 70.9027 93.5519C68.7745 93.5519 67.8169 91.6365 67.8169 88.6571C67.8169 87.3803 67.9233 85.997 68.1361 84.7201C69.3066 77.0588 70.6898 69.504 71.5411 61.8427C71.5411 61.5235 71.6475 61.2042 71.6475 60.7786C71.6475 59.0761 71.0091 57.3736 70.7963 55.4583C69.3066 56.948 67.2848 58.2248 66.3272 59.8209C62.2837 66.0989 58.3467 72.4833 54.3032 78.8677C53.8776 79.5062 52.9199 80.251 52.1751 80.251C49.5149 80.251 50.1534 74.9307 50.1534 71.5257C50.1534 68.8655 50.2598 66.3118 50.6854 63.758C53.3456 47.9034 56.857 32.1552 59.73 16.3006C60.5812 13.1084 60.0492 6.83044 63.2414 6.83044C64.7311 6.83044 67.072 9.3842 67.072 11.2995C67.072 11.938 66.9656 12.6828 66.8592 13.2148C65.5823 27.6861 62.2837 41.0934 59.73 54.8198V55.3519C59.73 56.5223 59.9428 57.5864 60.0492 58.4377C61.1133 57.7992 62.3901 57.2672 63.135 56.3095C66.1144 53.543 67.4977 49.6059 72.0731 49.6059C74.0949 49.6059 76.9678 53.1173 76.9678 56.3095C76.9678 57.3736 76.755 58.5441 76.755 59.6081C76.9678 59.7145 77.1807 59.7145 77.2871 59.7145ZM82.7795 77.378C82.9923 66.3118 88.0998 46.8393 98.5277 46.8393C102.039 46.8393 105.018 49.0739 105.018 52.9045C105.018 56.6287 101.294 61.8427 99.2725 65.2477C96.7187 69.3975 91.292 70.8872 91.292 76.314C91.292 78.3357 90.9728 81.3151 94.4842 81.3151C96.6123 81.3151 98.5277 80.1446 100.656 80.1446C101.826 80.1446 102.465 80.6767 102.465 81.7407C102.465 86.1034 95.8675 89.5084 91.824 89.5084C83.6307 89.5084 83.2051 82.2728 82.7795 77.378ZM100.975 55.2455C100.23 54.2878 99.5917 52.7981 98.9533 52.7981C96.6123 52.7981 95.1226 58.8633 94.2714 61.3106C94.2714 61.417 94.165 61.417 94.165 61.5235C94.165 61.9491 94.9098 62.9067 95.4419 62.9067C97.038 62.9067 99.3789 57.6928 100.975 55.2455ZM153.01 58.5441C150.776 67.3758 149.605 77.378 146.2 85.1457C145.988 86.1034 144.604 86.7418 143.753 87.4867C143.327 86.4226 142.37 85.3585 142.37 84.5073C143.327 79.719 144.604 75.0371 145.668 70.4616L148.009 60.0338C148.009 59.3953 147.796 58.6505 147.69 58.012C147.052 58.2248 146.094 58.2248 145.668 58.6505C141.731 63.0131 138.752 68.4399 135.028 73.3346C134.389 74.2923 132.899 74.6115 131.835 75.0371C131.41 74.0794 130.771 73.1218 130.771 72.1641C130.771 68.8655 132.261 65.4605 132.261 62.1619C132.261 61.2042 131.835 60.353 131.623 59.5017C124.813 63.8644 119.492 71.2065 117.151 79.0806C116.194 82.1663 113.853 85.1457 112.15 85.1457C110.873 85.1457 109.277 83.2304 109.277 80.1446V79.3998C110.661 70.9936 112.257 62.5875 113.959 53.9686C114.491 51.202 116.726 50.3508 119.067 50.3508C121.514 50.3508 122.152 52.7981 122.152 55.0327C122.152 56.7352 121.514 58.4377 121.514 60.353C121.514 61.3106 121.833 62.3747 121.94 63.4388C123.11 62.9067 124.387 62.9067 125.132 62.1619C128.218 59.8209 131.41 55.1391 134.389 55.1391C135.772 55.1391 136.73 60.1402 136.943 62.8003C138.113 61.3106 139.497 60.6722 140.561 59.3953C143.327 56.0967 144.923 52.3725 149.393 52.3725C150.35 52.3725 152.372 54.607 152.372 57.48V58.4377C152.478 58.4377 152.691 58.5441 153.01 58.5441ZM157.285 77.378C157.498 66.3118 162.605 46.8393 173.033 46.8393C176.545 46.8393 179.524 49.0739 179.524 52.9045C179.524 56.6287 175.8 61.8427 173.778 65.2477C171.224 69.3975 165.797 70.8872 165.797 76.314C165.797 78.3357 165.478 81.3151 168.99 81.3151C171.118 81.3151 173.033 80.1446 175.161 80.1446C176.332 80.1446 176.97 80.6767 176.97 81.7407C176.97 86.1034 170.373 89.5084 166.329 89.5084C158.136 89.5084 157.711 82.2728 157.285 77.378ZM175.48 55.2455C174.736 54.2878 174.097 52.7981 173.459 52.7981C171.118 52.7981 169.628 58.8633 168.777 61.3106C168.777 61.417 168.67 61.417 168.67 61.5235C168.67 61.9491 169.415 62.9067 169.947 62.9067C171.543 62.9067 173.884 57.6928 175.48 55.2455ZM193.572 64.9285C190.167 64.8221 183.889 64.8221 183.889 61.0978C183.889 60.5658 183.995 60.0338 184.421 59.3953C187.613 53.9686 191.231 48.5418 194.955 43.5407C195.487 42.7959 196.764 42.3703 198.148 42.3703C199.85 42.3703 201.021 43.0087 201.021 46.4137C201.021 49.4995 199.85 54.5006 197.935 54.5006C196.871 54.5006 195.487 51.734 194.423 51.734C192.827 51.734 191.976 56.6287 191.444 58.9697C193.466 59.3953 195.275 59.9274 197.296 59.9274H198.36C204.426 59.9274 208.15 63.226 208.15 68.2271C208.15 77.2716 199.105 85.5714 192.614 90.8917C188.571 94.1903 184.421 97.0633 179.207 97.0633C176.121 97.0633 174.206 95.0415 174.206 92.5942C174.206 87.3803 181.335 81.1023 185.911 78.2293C186.124 78.0165 186.549 78.0165 186.868 78.0165H188.039C188.039 78.6549 188.039 79.6126 187.613 80.251C186.762 81.7407 183.889 85.1457 183.889 86.6354C183.889 87.9123 184.208 87.9123 185.272 87.9123C186.762 87.9123 191.338 83.9753 192.614 82.4856C195.913 78.6549 201.233 72.6962 201.233 68.5463C201.233 65.9925 198.68 64.6092 195.275 64.6092C194.743 64.6092 194.104 64.9285 193.572 64.9285ZM223.106 82.592C223.106 85.4649 219.914 89.7212 217.36 89.7212C214.912 89.7212 211.295 86.529 211.295 83.8689C211.295 80.4638 214.806 77.4845 218.53 77.4845C220.658 77.4845 223.106 79.8254 223.106 82.592Z" fill="white"/>
</g>
<defs>
<linearGradient id="paint0_linear_85_861" x1="0.000151377" y1="90.7039" x2="263.609" y2="90.7039" gradientUnits="userSpaceOnUse">
<stop offset="0.2" stop-color="#2B44E9"/>
<stop offset="0.43" stop-color="#0F90F6"/>
<stop offset="0.54" stop-color="#04B2FD"/>
<stop offset="0.74" stop-color="#02CAFD"/>
<stop offset="1" stop-color="#00E6FF"/>
</linearGradient>
<clipPath id="clip0_85_861">
<rect width="237" height="123" fill="white"/>
</clipPath>
</defs>
</svg>
