<svg width="133" height="69" viewBox="0 0 133 69" fill="none" xmlns="http://www.w3.org/2000/svg">
<g clip-path="url(#clip0_85_325)">
<path d="M1.16122 57.7974C4.46704 56.5359 7.78058 55.2975 11.1122 54.1003C14.4463 52.9082 17.7959 51.7522 21.1686 50.658C24.5414 49.5638 27.9399 48.5288 31.3719 47.589C34.8039 46.6493 38.2745 45.81 41.8069 45.174C43.5756 44.8651 45.3624 44.6025 47.1724 44.4403C48.9849 44.2806 50.8232 44.2085 52.7052 44.3553C53.6476 44.4403 54.6002 44.5793 55.5605 44.8316C56.5157 45.0865 57.4941 45.4624 58.4003 46.0906C59.304 46.7085 60.1047 47.6173 60.5501 48.6472C60.7818 49.157 60.9415 49.6822 61.0393 50.1971C61.1449 50.7146 61.1938 51.2218 61.2144 51.7161C61.2556 52.7074 61.1758 53.6394 61.096 54.5354C61.0136 55.4236 60.9132 56.2835 60.9209 57.0328C60.9209 57.4035 60.9595 57.7433 61.0316 57.9673C61.1114 58.1965 61.1706 58.2634 61.2736 58.3407C61.3895 58.4179 61.6057 58.4977 61.8452 58.5003C62.0923 58.508 62.3987 58.4488 62.7231 58.3407C63.3771 58.1192 64.0825 57.715 64.7648 57.2593C65.4522 56.8036 66.1294 56.281 66.7988 55.7429C68.1401 54.6615 69.4635 53.5029 70.8023 52.3495C73.4773 50.0401 76.2348 47.7461 79.2471 45.7636C80.7507 44.7724 82.3212 43.8584 83.9638 43.0783C85.6038 42.2956 87.3211 41.6442 89.1002 41.1936C90.8767 40.7405 92.715 40.4856 94.5558 40.4831C95.0167 40.4702 95.4775 40.5088 95.9358 40.5242C96.3967 40.5448 96.8549 40.6092 97.3132 40.653C98.2246 40.7894 99.1361 40.9542 100.019 41.2117C100.91 41.446 101.77 41.7755 102.617 42.1179C103.451 42.4887 104.278 42.8775 105.063 43.3254C106.651 44.1982 108.127 45.2152 109.579 46.2219C111.028 47.2311 112.452 48.2558 113.925 49.1621C115.395 50.0787 116.924 50.8717 118.528 51.4484C120.132 52.0303 121.816 52.3572 123.518 52.4499C123.943 52.4757 124.373 52.4654 124.8 52.4731L126.082 52.3933L126.404 52.3727C126.509 52.365 126.615 52.3418 126.723 52.3289L127.359 52.2336L127.995 52.1384C128.206 52.0998 128.412 52.0431 128.623 51.9968L129.251 51.85C129.46 51.8037 129.671 51.7548 129.875 51.6827L131.105 51.2913L132.308 50.8125L132.609 50.6914L132.9 50.5524L133.484 50.2718C135.034 49.5071 136.522 48.6034 137.931 47.5761C140.742 45.5139 143.294 43.086 145.698 40.4985C143.636 43.3641 141.226 46.0108 138.427 48.2327C137.022 49.332 135.516 50.3155 133.919 51.1369L133.317 51.4407L133.016 51.5926L132.704 51.7264L131.458 52.2491L130.176 52.6842C129.965 52.764 129.746 52.8207 129.524 52.8722L128.868 53.0395C128.649 53.0936 128.43 53.1554 128.209 53.2017L127.539 53.315L126.87 53.4283C126.759 53.4463 126.646 53.4695 126.535 53.4798L126.195 53.5081L124.839 53.6188C124.385 53.6188 123.93 53.6394 123.477 53.6188C121.659 53.557 119.839 53.2378 118.114 52.6507C116.386 52.0663 114.754 51.2579 113.214 50.3387C111.667 49.4273 110.204 48.4181 108.742 47.4423C107.28 46.4716 105.825 45.5139 104.306 44.7157C103.552 44.3038 102.771 43.9588 101.989 43.6292C101.196 43.328 100.4 43.0371 99.5815 42.8414C98.7679 42.62 97.9363 42.4887 97.1021 42.3806C96.6824 42.3522 96.2654 42.3007 95.8431 42.2879C95.4209 42.2853 95.0012 42.2544 94.5816 42.275C92.8977 42.311 91.2191 42.5762 89.5893 43.0268C87.957 43.4722 86.3736 44.1107 84.8469 44.8754C83.3201 45.64 81.85 46.5308 80.4314 47.5092C77.5864 49.4633 74.9526 51.7419 72.329 54.0797C71.0134 55.2485 69.7055 56.438 68.3204 57.5914C67.6252 58.1656 66.9146 58.7372 66.1422 59.2701C65.7586 59.5379 65.3544 59.7953 64.927 60.0373C64.4996 60.2768 64.0465 60.5034 63.5367 60.6836C63.0295 60.8612 62.4631 61.0028 61.8246 61.0028C61.1835 60.9977 60.5167 60.8509 59.8859 60.457C59.8086 60.4055 59.7288 60.3566 59.6542 60.3C59.5821 60.2382 59.51 60.1738 59.4405 60.1094C59.2937 59.9833 59.1804 59.8339 59.0646 59.682C58.9436 59.5327 58.8741 59.3757 58.7839 59.216C58.7041 59.059 58.6526 58.9071 58.5908 58.7475C58.39 58.1295 58.3488 57.5837 58.3308 57.0739C58.3076 56.057 58.408 55.1636 58.4724 54.2934C58.5393 53.4309 58.5883 52.6018 58.5419 51.8294C58.5213 51.4432 58.4776 51.0699 58.3977 50.7275C58.3257 50.3773 58.2175 50.0581 58.0785 49.7672C57.8082 49.1801 57.3911 48.7296 56.8401 48.3563C56.2891 47.9829 55.5965 47.7152 54.8473 47.5324C54.0981 47.3496 53.3 47.244 52.4838 47.1822C50.8464 47.0818 49.1497 47.1694 47.4556 47.3496C45.7589 47.5324 44.0571 47.8104 42.3578 48.1348C38.9619 48.8094 35.5788 49.6616 32.2241 50.6322C28.8668 51.5977 25.5301 52.6636 22.2114 53.7913C18.8927 54.919 15.5894 56.1059 12.2991 57.334C9.01126 58.5672 5.73633 59.8391 2.46913 61.1367H2.46398C1.53969 61.5049 0.491815 61.0543 0.123643 60.13C-0.244529 59.2057 0.208606 58.1579 1.1329 57.7897C1.13805 57.7897 1.15092 57.782 1.15607 57.782L1.16122 57.7974Z" fill="url(#paint0_linear_85_325)"/>
<path d="M15.9208 44.661C16.8162 39.9453 17.6519 28.8427 18.5473 24.1271C18.6667 23.4108 18.9651 22.6945 18.9651 21.8588C18.9651 20.7843 18.4279 20.2471 17.3534 20.2471C16.5775 20.2471 15.6224 20.6053 14.727 20.6053C14.1301 20.6053 13.4138 20.068 13.2944 19.3517C13.2944 18.1579 15.1449 17.9788 16.3984 17.6804C19.5023 17.1432 20.5768 15.8896 20.5768 12.9647C20.5768 12.4275 20.5171 11.7709 20.5171 11.174C20.5171 8.84603 21.4125 5.92115 24.218 5.92115C25.4118 5.92115 25.5312 6.9359 25.5312 7.89097C25.5312 9.14449 25.2327 11.174 25.2327 12.4275C25.2327 13.4423 25.5312 13.8601 26.3072 13.8601C27.6204 13.8601 29.829 12.0694 31.6794 12.0694C32.0376 12.0694 32.4554 12.1888 32.8135 12.2484C32.5151 12.6066 32.3957 13.1438 32.0376 13.3826C29.1724 15.3524 24.4567 17.6207 23.8598 20.3068C22.9644 24.3658 22.2481 34.7522 21.3528 38.8709C21.2931 39.1693 21.2334 39.4081 21.2334 39.6469C21.2334 40.1244 21.4125 40.4229 22.0691 40.4229C22.1885 40.4229 22.3675 40.4229 22.5466 40.3632C22.7854 40.3632 23.6211 41.1392 23.6211 41.3779C22.666 43.9447 22.666 46.9889 20.2186 48.7797C19.6814 49.2572 18.786 49.7347 18.2488 49.7347C16.7565 49.7347 16.2193 47.0486 16.2193 46.2726C16.2193 45.7354 16.279 45.1982 16.279 44.7206C16.1596 44.7206 16.0402 44.661 15.9208 44.661ZM43.3235 32.9614C42.7862 36.3041 42.3087 39.6469 41.6521 43.0493C41.5327 43.7656 41.473 44.2431 41.473 44.6013C41.473 45.9742 44.0398 45.1385 44.0398 46.6308V46.7502C42.9056 48.4812 41.1746 51.9433 39.742 51.9433C38.5481 51.9433 38.0109 50.8689 38.0109 49.1975C38.0109 48.4812 38.0706 47.7052 38.19 46.9889C38.8466 42.6911 39.6226 38.453 40.1001 34.1552C40.1001 33.9762 40.1598 33.7971 40.1598 33.5583C40.1598 32.6033 39.8017 31.6482 39.6823 30.5738C38.8466 31.4094 37.7124 32.1257 37.1752 33.0211C34.9069 36.5429 32.6984 40.1244 30.4301 43.7059C30.1913 44.064 29.6541 44.4819 29.2363 44.4819C27.744 44.4819 28.1021 41.4973 28.1021 39.5872C28.1021 38.0949 28.1618 36.6623 28.4006 35.2297C29.8929 26.3357 31.8627 17.5013 33.4744 8.60727C33.9519 6.81652 33.6534 3.29472 35.4442 3.29472C36.2799 3.29472 37.5931 4.72732 37.5931 5.80177C37.5931 6.15991 37.5334 6.57776 37.4737 6.87621C36.7574 14.9943 34.9069 22.5154 33.4744 30.2156V30.5141C33.4744 31.1707 33.5937 31.7676 33.6534 32.2451C34.2503 31.887 34.9666 31.5885 35.3845 31.0513C37.0558 29.4993 37.8318 27.2907 40.3986 27.2907C41.5327 27.2907 43.1444 29.2605 43.1444 31.0513C43.1444 31.6482 43.025 32.3048 43.025 32.9017C43.1444 32.9614 43.2638 32.9614 43.3235 32.9614ZM46.4046 42.8702C46.5239 36.6623 49.3891 25.7387 55.2389 25.7387C57.2087 25.7387 58.8801 26.9923 58.8801 29.1412C58.8801 31.2304 56.7909 34.1552 55.6567 36.0654C54.2242 38.3933 51.1799 39.229 51.1799 42.2733C51.1799 43.4074 51.0008 45.0788 52.9706 45.0788C54.1645 45.0788 55.2389 44.4222 56.4327 44.4222C57.0893 44.4222 57.4475 44.7206 57.4475 45.3176C57.4475 47.7649 53.7466 49.675 51.4783 49.675C46.8821 49.675 46.6433 45.616 46.4046 42.8702ZM56.6118 30.4544C56.194 29.9171 55.8358 29.0815 55.4777 29.0815C54.1645 29.0815 53.3288 32.4839 52.8512 33.8568C52.8512 33.9165 52.7916 33.9165 52.7916 33.9762C52.7916 34.2149 53.2094 34.7522 53.5079 34.7522C54.4032 34.7522 55.7164 31.8273 56.6118 30.4544ZM85.8024 32.3048C84.5488 37.2592 83.8922 42.8702 81.9821 47.2277C81.8627 47.7649 81.0867 48.1231 80.6092 48.5409C80.3704 47.944 79.8332 47.3471 79.8332 46.8695C80.3704 44.1834 81.0867 41.557 81.6837 38.9903L82.9969 33.1405C82.9969 32.7823 82.8775 32.3645 82.8178 32.0063C82.4596 32.1257 81.9224 32.1257 81.6837 32.3645C79.4751 34.8118 77.8037 37.8561 75.7145 40.6019C75.3564 41.1392 74.5207 41.3182 73.9238 41.557C73.685 41.0198 73.3268 40.4825 73.3268 39.9453C73.3268 38.0949 74.1625 36.1848 74.1625 34.3343C74.1625 33.7971 73.9238 33.3196 73.8044 32.842C69.9841 35.2894 66.9995 39.4081 65.6863 43.8253C65.1491 45.5563 63.8359 47.2277 62.8808 47.2277C62.1645 47.2277 61.2692 46.1532 61.2692 44.4222V44.0043C62.0451 39.2887 62.9405 34.5731 63.8956 29.7381C64.194 28.1861 65.4476 27.7086 66.7608 27.7086C68.1337 27.7086 68.4918 29.0815 68.4918 30.335C68.4918 31.29 68.1337 32.2451 68.1337 33.3196C68.1337 33.8568 68.3128 34.4537 68.3724 35.0506C69.0291 34.7522 69.7453 34.7522 70.1632 34.3343C71.8942 33.0211 73.685 30.3947 75.3564 30.3947C76.1323 30.3947 76.6696 33.2002 76.7889 34.6925C77.4456 33.8568 78.2215 33.4986 78.8185 32.7823C80.3704 30.9319 81.2658 28.8427 83.7729 28.8427C84.3101 28.8427 85.4442 30.0962 85.4442 31.7079V32.2451C85.5039 32.2451 85.6233 32.3048 85.8024 32.3048ZM88.2003 42.8702C88.3197 36.6623 91.1849 25.7387 97.0346 25.7387C99.0045 25.7387 100.676 26.9923 100.676 29.1412C100.676 31.2304 98.5866 34.1552 97.4525 36.0654C96.0199 38.3933 92.9756 39.229 92.9756 42.2733C92.9756 43.4074 92.7965 45.0788 94.7664 45.0788C95.9602 45.0788 97.0346 44.4222 98.2285 44.4222C98.8851 44.4222 99.2432 44.7206 99.2432 45.3176C99.2432 47.7649 95.5424 49.675 93.2741 49.675C88.6778 49.675 88.4391 45.616 88.2003 42.8702ZM98.4075 30.4544C97.9897 29.9171 97.6316 29.0815 97.2734 29.0815C95.9602 29.0815 95.1245 32.4839 94.647 33.8568C94.647 33.9165 94.5873 33.9165 94.5873 33.9762C94.5873 34.2149 95.0051 34.7522 95.3036 34.7522C96.199 34.7522 97.5122 31.8273 98.4075 30.4544ZM108.556 35.8863C106.646 35.8266 103.125 35.8266 103.125 33.7374C103.125 33.4389 103.184 33.1405 103.423 32.7823C105.214 29.7381 107.243 26.6938 109.332 23.8883C109.631 23.4705 110.347 23.2317 111.123 23.2317C112.078 23.2317 112.735 23.5898 112.735 25.5C112.735 27.231 112.078 30.0365 111.004 30.0365C110.407 30.0365 109.631 28.4845 109.034 28.4845C108.139 28.4845 107.661 31.2304 107.363 32.5436C108.497 32.7823 109.512 33.0808 110.646 33.0808H111.243C114.645 33.0808 116.734 34.9312 116.734 37.7367C116.734 42.8105 111.66 47.4665 108.019 50.451C105.751 52.3015 103.423 53.9131 100.498 53.9131C98.7671 53.9131 97.6926 52.779 97.6926 51.4061C97.6926 48.4812 101.692 44.9594 104.259 43.3477C104.378 43.2284 104.617 43.2284 104.796 43.2284H105.453C105.453 43.5865 105.453 44.1237 105.214 44.4819C104.736 45.3176 103.125 47.2277 103.125 48.0634C103.125 48.7797 103.304 48.7797 103.901 48.7797C104.736 48.7797 107.303 46.5711 108.019 45.7354C109.87 43.5865 112.854 40.2438 112.854 37.9158C112.854 36.4832 111.422 35.7072 109.512 35.7072C109.213 35.7072 108.855 35.8863 108.556 35.8863ZM125.124 45.7951C125.124 47.4068 123.333 49.7944 121.901 49.7944C120.528 49.7944 118.498 48.0037 118.498 46.5114C118.498 44.6013 120.468 42.9299 122.557 42.9299C123.751 42.9299 125.124 44.2431 125.124 45.7951Z" fill="black"/>
</g>
<defs>
<linearGradient id="paint0_linear_85_325" x1="6.09819e-05" y1="50.882" x2="147.48" y2="50.882" gradientUnits="userSpaceOnUse">
<stop offset="0.2" stop-color="#2B44E9"/>
<stop offset="0.43" stop-color="#0F90F6"/>
<stop offset="0.54" stop-color="#04B2FD"/>
<stop offset="0.74" stop-color="#02CAFD"/>
<stop offset="1" stop-color="#00E6FF"/>
</linearGradient>
<clipPath id="clip0_85_325">
<rect width="132.593" height="69" fill="white"/>
</clipPath>
</defs>
</svg>
