<svg width="895" height="463" viewBox="0 0 895 463" fill="none" xmlns="http://www.w3.org/2000/svg">
<g clip-path="url(#clip0_54_1157)">
<path d="M437.813 99.2573C437.813 153.654 392.698 198.363 337.744 198.363H280V0H337.718C391.988 0 437.787 43.7453 437.787 99.2573H437.813ZM412.352 99.2573C412.352 58.4284 381.489 22.849 337.744 22.849H304.802V175.666H337.744C378.725 175.666 412.352 142.445 412.352 99.2573Z" fill="url(#paint0_linear_54_1157)"/>
<path d="M551.652 59.5195L487.873 171.051L492.361 59.5195H470.552L466.85 198.794L500.73 198.667L553.934 103.924L550.181 257.958H574.983V59.5195H551.703H551.652Z" fill="black"/>
<path d="M480.926 65.1484L382.683 257.957" stroke="black" stroke-width="23.6351" stroke-miterlimit="10"/>
<path d="M597.678 198.362C607.566 198.362 615.582 190.347 615.582 180.459C615.582 170.571 607.566 162.555 597.678 162.555C587.79 162.555 579.774 170.571 579.774 180.459C579.774 190.347 587.79 198.362 597.678 198.362Z" fill="url(#paint1_linear_54_1157)"/>
</g>
<path d="M36.1818 433.455C30.3636 433.455 25.2273 431.985 20.7727 429.045C16.3182 426.076 12.8333 421.894 10.3182 416.5C7.80303 411.076 6.54545 404.667 6.54545 397.273C6.54545 389.939 7.80303 383.576 10.3182 378.182C12.8333 372.788 16.3333 368.621 20.8182 365.682C25.303 362.742 30.4848 361.273 36.3636 361.273C40.9091 361.273 44.5 362.03 47.1364 363.545C49.803 365.03 51.8333 366.727 53.2273 368.636C54.6515 370.515 55.7576 372.061 56.5455 373.273H57.4545V338.909H68.1818V432H57.8182V421.273H56.5455C55.7576 422.545 54.6364 424.152 53.1818 426.091C51.7273 428 49.6515 429.712 46.9545 431.227C44.2576 432.712 40.6667 433.455 36.1818 433.455ZM37.6364 423.818C41.9394 423.818 45.5758 422.697 48.5455 420.455C51.5152 418.182 53.7727 415.045 55.3182 411.045C56.8636 407.015 57.6364 402.364 57.6364 397.091C57.6364 391.879 56.8788 387.318 55.3636 383.409C53.8485 379.47 51.6061 376.409 48.6364 374.227C45.6667 372.015 42 370.909 37.6364 370.909C33.0909 370.909 29.303 372.076 26.2727 374.409C23.2727 376.712 21.0152 379.848 19.5 383.818C18.0152 387.758 17.2727 392.182 17.2727 397.091C17.2727 402.061 18.0303 406.576 19.5455 410.636C21.0909 414.667 23.3636 417.879 26.3636 420.273C29.3939 422.636 33.1515 423.818 37.6364 423.818ZM118.591 433.455C111.864 433.455 106.061 431.97 101.182 429C96.3333 426 92.5909 421.818 89.9545 416.455C87.3485 411.061 86.0455 404.788 86.0455 397.636C86.0455 390.485 87.3485 384.182 89.9545 378.727C92.5909 373.242 96.2576 368.97 100.955 365.909C105.682 362.818 111.197 361.273 117.5 361.273C121.136 361.273 124.727 361.879 128.273 363.091C131.818 364.303 135.045 366.273 137.955 369C140.864 371.697 143.182 375.273 144.909 379.727C146.636 384.182 147.5 389.667 147.5 396.182V400.727H93.6818V391.455H136.591C136.591 387.515 135.803 384 134.227 380.909C132.682 377.818 130.47 375.379 127.591 373.591C124.742 371.803 121.379 370.909 117.5 370.909C113.227 370.909 109.53 371.97 106.409 374.091C103.318 376.182 100.939 378.909 99.2727 382.273C97.6061 385.636 96.7727 389.242 96.7727 393.091V399.273C96.7727 404.545 97.6818 409.015 99.5 412.682C101.348 416.318 103.909 419.091 107.182 421C110.455 422.879 114.258 423.818 118.591 423.818C121.409 423.818 123.955 423.424 126.227 422.636C128.53 421.818 130.515 420.606 132.182 419C133.848 417.364 135.136 415.333 136.045 412.909L146.409 415.818C145.318 419.333 143.485 422.424 140.909 425.091C138.333 427.727 135.152 429.788 131.364 431.273C127.576 432.727 123.318 433.455 118.591 433.455ZM213.273 377.818L203.636 380.545C203.03 378.939 202.136 377.379 200.955 375.864C199.803 374.318 198.227 373.045 196.227 372.045C194.227 371.045 191.667 370.545 188.545 370.545C184.273 370.545 180.712 371.53 177.864 373.5C175.045 375.439 173.636 377.909 173.636 380.909C173.636 383.576 174.606 385.682 176.545 387.227C178.485 388.773 181.515 390.061 185.636 391.091L196 393.636C202.242 395.152 206.894 397.47 209.955 400.591C213.015 403.682 214.545 407.667 214.545 412.545C214.545 416.545 213.394 420.121 211.091 423.273C208.818 426.424 205.636 428.909 201.545 430.727C197.455 432.545 192.697 433.455 187.273 433.455C180.152 433.455 174.258 431.909 169.591 428.818C164.924 425.727 161.97 421.212 160.727 415.273L170.909 412.727C171.879 416.485 173.712 419.303 176.409 421.182C179.136 423.061 182.697 424 187.091 424C192.091 424 196.061 422.939 199 420.818C201.97 418.667 203.455 416.091 203.455 413.091C203.455 410.667 202.606 408.636 200.909 407C199.212 405.333 196.606 404.091 193.091 403.273L181.455 400.545C175.061 399.03 170.364 396.682 167.364 393.5C164.394 390.288 162.909 386.273 162.909 381.455C162.909 377.515 164.015 374.03 166.227 371C168.47 367.97 171.515 365.591 175.364 363.864C179.242 362.136 183.636 361.273 188.545 361.273C195.455 361.273 200.879 362.788 204.818 365.818C208.788 368.848 211.606 372.848 213.273 377.818ZM230.693 432V362.182H241.42V432H230.693ZM236.148 350.545C234.057 350.545 232.254 349.833 230.739 348.409C229.254 346.985 228.511 345.273 228.511 343.273C228.511 341.273 229.254 339.561 230.739 338.136C232.254 336.712 234.057 336 236.148 336C238.239 336 240.027 336.712 241.511 338.136C243.027 339.561 243.784 341.273 243.784 343.273C243.784 345.273 243.027 346.985 241.511 348.409C240.027 349.833 238.239 350.545 236.148 350.545ZM289.25 459.636C284.068 459.636 279.614 458.97 275.886 457.636C272.159 456.333 269.053 454.606 266.568 452.455C264.114 450.333 262.159 448.061 260.705 445.636L269.25 439.636C270.22 440.909 271.447 442.364 272.932 444C274.417 445.667 276.447 447.106 279.023 448.318C281.629 449.561 285.038 450.182 289.25 450.182C294.886 450.182 299.538 448.818 303.205 446.091C306.871 443.364 308.705 439.091 308.705 433.273V419.091H307.795C307.008 420.364 305.886 421.939 304.432 423.818C303.008 425.667 300.947 427.318 298.25 428.773C295.583 430.197 291.977 430.909 287.432 430.909C281.795 430.909 276.735 429.576 272.25 426.909C267.795 424.242 264.265 420.364 261.659 415.273C259.083 410.182 257.795 404 257.795 396.727C257.795 389.576 259.053 383.348 261.568 378.045C264.083 372.712 267.583 368.591 272.068 365.682C276.553 362.742 281.735 361.273 287.614 361.273C292.159 361.273 295.765 362.03 298.432 363.545C301.129 365.03 303.189 366.727 304.614 368.636C306.068 370.515 307.189 372.061 307.977 373.273H309.068V362.182H319.432V434C319.432 440 318.068 444.879 315.341 448.636C312.644 452.424 309.008 455.197 304.432 456.955C299.886 458.742 294.826 459.636 289.25 459.636ZM288.886 421.273C293.189 421.273 296.826 420.288 299.795 418.318C302.765 416.348 305.023 413.515 306.568 409.818C308.114 406.121 308.886 401.697 308.886 396.545C308.886 391.515 308.129 387.076 306.614 383.227C305.098 379.379 302.856 376.364 299.886 374.182C296.917 372 293.25 370.909 288.886 370.909C284.341 370.909 280.553 372.061 277.523 374.364C274.523 376.667 272.265 379.758 270.75 383.636C269.265 387.515 268.523 391.818 268.523 396.545C268.523 401.394 269.28 405.682 270.795 409.409C272.341 413.106 274.614 416.015 277.614 418.136C280.644 420.227 284.402 421.273 288.886 421.273ZM349.795 390V432H339.068V362.182H349.432V373.091H350.341C351.977 369.545 354.462 366.697 357.795 364.545C361.129 362.364 365.432 361.273 370.705 361.273C375.432 361.273 379.568 362.242 383.114 364.182C386.659 366.091 389.417 369 391.386 372.909C393.356 376.788 394.341 381.697 394.341 387.636V432H383.614V388.364C383.614 382.879 382.189 378.606 379.341 375.545C376.492 372.455 372.583 370.909 367.614 370.909C364.189 370.909 361.129 371.652 358.432 373.136C355.765 374.621 353.659 376.788 352.114 379.636C350.568 382.485 349.795 385.939 349.795 390ZM449.943 432V362.182H460.307V373.091H461.216C462.67 369.364 465.019 366.47 468.261 364.409C471.504 362.318 475.398 361.273 479.943 361.273C484.549 361.273 488.383 362.318 491.443 364.409C494.534 366.47 496.943 369.364 498.67 373.091H499.398C501.186 369.485 503.867 366.621 507.443 364.5C511.019 362.348 515.307 361.273 520.307 361.273C526.549 361.273 531.655 363.227 535.625 367.136C539.595 371.015 541.58 377.061 541.58 385.273V432H530.852V385.273C530.852 380.121 529.443 376.439 526.625 374.227C523.807 372.015 520.489 370.909 516.67 370.909C511.761 370.909 507.958 372.394 505.261 375.364C502.564 378.303 501.216 382.03 501.216 386.545V432H490.307V384.182C490.307 380.212 489.019 377.015 486.443 374.591C483.867 372.136 480.549 370.909 476.489 370.909C473.701 370.909 471.095 371.652 468.67 373.136C466.277 374.621 464.337 376.682 462.852 379.318C461.398 381.924 460.67 384.939 460.67 388.364V432H449.943ZM581.739 433.636C577.314 433.636 573.299 432.803 569.693 431.136C566.087 429.439 563.223 427 561.102 423.818C558.981 420.606 557.92 416.727 557.92 412.182C557.92 408.182 558.708 404.939 560.284 402.455C561.86 399.939 563.966 397.97 566.602 396.545C569.239 395.121 572.148 394.061 575.33 393.364C578.542 392.636 581.769 392.061 585.011 391.636C589.254 391.091 592.693 390.682 595.33 390.409C597.996 390.106 599.936 389.606 601.148 388.909C602.39 388.212 603.011 387 603.011 385.273V384.909C603.011 380.424 601.784 376.939 599.33 374.455C596.905 371.97 593.223 370.727 588.284 370.727C583.163 370.727 579.148 371.848 576.239 374.091C573.33 376.333 571.284 378.727 570.102 381.273L559.92 377.636C561.739 373.394 564.163 370.091 567.193 367.727C570.254 365.333 573.587 363.667 577.193 362.727C580.83 361.758 584.405 361.273 587.92 361.273C590.163 361.273 592.739 361.545 595.648 362.091C598.587 362.606 601.42 363.682 604.148 365.318C606.905 366.955 609.193 369.424 611.011 372.727C612.83 376.03 613.739 380.455 613.739 386V432H603.011V422.545H602.466C601.739 424.061 600.527 425.682 598.83 427.409C597.133 429.136 594.875 430.606 592.057 431.818C589.239 433.03 585.799 433.636 581.739 433.636ZM583.375 424C587.617 424 591.193 423.167 594.102 421.5C597.042 419.833 599.254 417.682 600.739 415.045C602.254 412.409 603.011 409.636 603.011 406.727V396.909C602.557 397.455 601.557 397.955 600.011 398.409C598.496 398.833 596.739 399.212 594.739 399.545C592.769 399.848 590.845 400.121 588.966 400.364C587.117 400.576 585.617 400.758 584.466 400.909C581.678 401.273 579.072 401.864 576.648 402.682C574.254 403.47 572.314 404.667 570.83 406.273C569.375 407.848 568.648 410 568.648 412.727C568.648 416.455 570.027 419.273 572.784 421.182C575.572 423.061 579.102 424 583.375 424ZM633.318 432V362.182H643.682V372.727H644.409C645.682 369.273 647.985 366.47 651.318 364.318C654.652 362.167 658.409 361.091 662.591 361.091C663.379 361.091 664.364 361.106 665.545 361.136C666.727 361.167 667.621 361.212 668.227 361.273V372.182C667.864 372.091 667.03 371.955 665.727 371.773C664.455 371.561 663.106 371.455 661.682 371.455C658.288 371.455 655.258 372.167 652.591 373.591C649.955 374.985 647.864 376.924 646.318 379.409C644.803 381.864 644.045 384.667 644.045 387.818V432H633.318ZM690.943 406.545L690.761 393.273H692.943L723.489 362.182H736.761L704.216 395.091H703.307L690.943 406.545ZM680.943 432V338.909H691.67V432H680.943ZM725.307 432L698.034 397.455L705.67 390L738.943 432H725.307ZM776.966 433.455C770.239 433.455 764.436 431.97 759.557 429C754.708 426 750.966 421.818 748.33 416.455C745.723 411.061 744.42 404.788 744.42 397.636C744.42 390.485 745.723 384.182 748.33 378.727C750.966 373.242 754.633 368.97 759.33 365.909C764.057 362.818 769.572 361.273 775.875 361.273C779.511 361.273 783.102 361.879 786.648 363.091C790.193 364.303 793.42 366.273 796.33 369C799.239 371.697 801.557 375.273 803.284 379.727C805.011 384.182 805.875 389.667 805.875 396.182V400.727H752.057V391.455H794.966C794.966 387.515 794.178 384 792.602 380.909C791.057 377.818 788.845 375.379 785.966 373.591C783.117 371.803 779.754 370.909 775.875 370.909C771.602 370.909 767.905 371.97 764.784 374.091C761.693 376.182 759.314 378.909 757.648 382.273C755.981 385.636 755.148 389.242 755.148 393.091V399.273C755.148 404.545 756.057 409.015 757.875 412.682C759.723 416.318 762.284 419.091 765.557 421C768.83 422.879 772.633 423.818 776.966 423.818C779.784 423.818 782.33 423.424 784.602 422.636C786.905 421.818 788.89 420.606 790.557 419C792.223 417.364 793.511 415.333 794.42 412.909L804.784 415.818C803.693 419.333 801.86 422.424 799.284 425.091C796.708 427.727 793.527 429.788 789.739 431.273C785.951 432.727 781.693 433.455 776.966 433.455ZM852.557 362.182V371.273H816.375V362.182H852.557ZM826.92 345.455H837.648V412C837.648 415.03 838.087 417.303 838.966 418.818C839.875 420.303 841.027 421.303 842.42 421.818C843.845 422.303 845.345 422.545 846.92 422.545C848.102 422.545 849.072 422.485 849.83 422.364C850.587 422.212 851.193 422.091 851.648 422L853.83 431.636C853.102 431.909 852.087 432.182 850.784 432.455C849.481 432.758 847.83 432.909 845.83 432.909C842.799 432.909 839.83 432.258 836.92 430.955C834.042 429.652 831.648 427.667 829.739 425C827.86 422.333 826.92 418.97 826.92 414.909V345.455ZM876.511 432.727C874.269 432.727 872.345 431.924 870.739 430.318C869.133 428.712 868.33 426.788 868.33 424.545C868.33 422.303 869.133 420.379 870.739 418.773C872.345 417.167 874.269 416.364 876.511 416.364C878.754 416.364 880.678 417.167 882.284 418.773C883.89 420.379 884.693 422.303 884.693 424.545C884.693 426.03 884.314 427.394 883.557 428.636C882.83 429.879 881.845 430.879 880.602 431.636C879.39 432.364 878.027 432.727 876.511 432.727Z" fill="black"/>
<defs>
<linearGradient id="paint0_linear_54_1157" x1="280" y1="99.1813" x2="437.813" y2="99.1813" gradientUnits="userSpaceOnUse">
<stop stop-color="#39007F"/>
<stop offset="1" stop-color="#15D0FF"/>
</linearGradient>
<linearGradient id="paint1_linear_54_1157" x1="579.774" y1="180.459" x2="615.582" y2="180.459" gradientUnits="userSpaceOnUse">
<stop stop-color="#371085"/>
<stop offset="1" stop-color="#1DB3EC"/>
</linearGradient>
<clipPath id="clip0_54_1157">
<rect width="335.583" height="263.308" fill="white" transform="translate(280)"/>
</clipPath>
</defs>
</svg>
