<svg width="815" height="423" viewBox="0 0 815 423" fill="none" xmlns="http://www.w3.org/2000/svg">
<g clip-path="url(#clip0_83_2985)">
<path d="M7.13723 354.326C27.4568 346.592 47.8239 339.001 68.3018 331.661C88.7955 324.353 109.384 317.267 130.115 310.559C150.846 303.851 171.736 297.506 192.831 291.745C213.926 285.984 235.258 280.838 256.97 276.94C267.842 275.046 278.825 273.436 289.95 272.441C301.091 271.463 312.39 271.021 323.959 271.92C329.751 272.441 335.606 273.294 341.509 274.84C347.38 276.403 353.394 278.707 358.964 282.558C364.519 286.347 369.44 291.918 372.178 298.232C373.602 301.357 374.584 304.577 375.185 307.733C375.834 310.906 376.134 314.015 376.261 317.046C376.514 323.122 376.024 328.836 375.533 334.329C375.027 339.774 374.409 345.046 374.457 349.639C374.457 351.912 374.694 353.995 375.137 355.368C375.628 356.773 375.992 357.183 376.625 357.657C377.337 358.13 378.666 358.62 380.138 358.635C381.657 358.683 383.541 358.32 385.535 357.657C389.554 356.299 393.89 353.821 398.084 351.028C402.309 348.234 406.471 345.03 410.586 341.731C418.831 335.102 426.965 327.999 435.194 320.928C451.637 306.771 468.585 292.707 487.101 280.554C496.343 274.477 505.996 268.874 516.093 264.092C526.174 259.294 536.729 255.3 547.664 252.538C558.584 249.76 569.883 248.198 581.198 248.182C584.031 248.103 586.863 248.34 589.68 248.434C592.513 248.561 595.33 248.955 598.147 249.224C603.749 250.06 609.351 251.07 614.779 252.649C620.255 254.085 625.54 256.105 630.747 258.204C635.874 260.477 640.954 262.861 645.781 265.607C655.545 270.958 664.613 277.192 673.538 283.363C682.448 289.551 691.199 295.832 700.251 301.388C709.287 307.007 718.688 311.869 728.547 315.404C738.406 318.971 748.756 320.976 759.216 321.544C761.827 321.702 764.47 321.639 767.097 321.686L774.978 321.197L776.956 321.07C777.605 321.023 778.254 320.881 778.919 320.802L782.827 320.218L786.736 319.634C788.034 319.397 789.3 319.05 790.598 318.766L794.459 317.866C795.741 317.582 797.038 317.282 798.289 316.84L805.853 314.441L813.244 311.506L815.095 310.764L816.883 309.911L820.476 308.191C830.002 303.503 839.149 297.963 847.806 291.666C865.087 279.023 880.77 264.139 895.551 248.277C882.875 265.844 868.062 282.069 850.86 295.69C842.219 302.43 832.962 308.459 823.15 313.494L819.447 315.357L817.595 316.288L815.681 317.109L808.021 320.313L800.14 322.98C798.842 323.47 797.497 323.817 796.136 324.132L792.101 325.158C790.756 325.49 789.411 325.869 788.05 326.153L783.935 326.847L779.82 327.542C779.14 327.652 778.444 327.794 777.763 327.857L775.674 328.031L767.334 328.71C764.549 328.71 761.748 328.836 758.963 328.71C747.79 328.331 736.602 326.374 725.999 322.775C715.38 319.192 705.347 314.236 695.883 308.601C686.372 303.014 677.384 296.827 668.395 290.845C659.406 284.894 650.465 279.023 641.128 274.13C636.491 271.605 631.696 269.49 626.885 267.469C622.011 265.623 617.121 263.839 612.089 262.64C607.088 261.282 601.976 260.477 596.849 259.814C594.27 259.641 591.706 259.325 589.111 259.246C586.515 259.23 583.936 259.041 581.356 259.167C571.006 259.388 560.688 261.014 550.671 263.776C540.638 266.507 530.905 270.421 521.521 275.109C512.137 279.796 503.1 285.257 494.381 291.255C476.894 303.235 460.704 317.203 444.579 331.535C436.492 338.701 428.453 345.993 419.939 353.064C415.666 356.584 411.298 360.087 406.551 363.355C404.193 364.996 401.708 366.575 399.081 368.058C396.454 369.526 393.669 370.915 390.535 372.02C387.418 373.109 383.936 373.977 380.012 373.977C376.071 373.945 371.972 373.046 368.095 370.631C367.62 370.315 367.13 370.015 366.671 369.668C366.228 369.289 365.785 368.895 365.357 368.5C364.455 367.727 363.759 366.811 363.047 365.88C362.303 364.965 361.876 364.002 361.322 363.023C360.831 362.06 360.515 361.129 360.135 360.151C358.901 356.363 358.648 353.016 358.537 349.891C358.394 343.657 359.012 338.18 359.407 332.845C359.819 327.557 360.119 322.475 359.834 317.74C359.708 315.373 359.439 313.084 358.948 310.985C358.505 308.838 357.84 306.881 356.986 305.097C355.324 301.499 352.761 298.737 349.374 296.448C345.987 294.159 341.73 292.518 337.125 291.397C332.52 290.277 327.614 289.63 322.598 289.251C312.533 288.635 302.104 289.172 291.691 290.277C281.262 291.397 270.802 293.102 260.357 295.091C239.483 299.226 218.689 304.45 198.069 310.401C177.433 316.32 156.923 322.854 136.524 329.767C116.126 336.68 95.8219 343.957 75.5972 351.485C55.3884 359.046 35.2587 366.843 15.1765 374.798H15.1448C9.46354 377.055 3.02266 374.293 0.759654 368.626C-1.50336 362.96 1.28189 356.536 6.96315 354.279C6.9948 354.279 7.07393 354.232 7.10558 354.232L7.13723 354.326Z" fill="url(#paint0_linear_83_2985)"/>
<path d="M97.7968 276.618C103.286 247.709 108.409 179.645 113.898 150.736C114.63 146.345 116.459 141.954 116.459 136.831C116.459 130.244 113.166 126.951 106.579 126.951C101.822 126.951 95.9671 129.146 90.4781 129.146C86.8187 129.146 82.4275 125.853 81.6957 121.462C81.6957 114.143 93.0396 113.045 100.724 111.215C119.753 107.922 126.34 100.237 126.34 82.3066C126.34 79.0132 125.974 74.9879 125.974 71.3285C125.974 57.057 131.463 39.1262 148.662 39.1262C155.98 39.1262 156.712 45.3471 156.712 51.2021C156.712 58.8867 154.883 71.3285 154.883 79.0132C154.883 85.2341 156.712 87.7956 161.469 87.7956C169.52 87.7956 183.06 76.8175 194.404 76.8175C196.599 76.8175 199.161 77.5494 201.356 77.9153C199.527 80.111 198.795 83.4044 196.599 84.8681C179.034 96.944 150.126 110.85 146.466 127.317C140.977 152.2 136.586 215.873 131.097 241.122C130.731 242.952 130.365 244.416 130.365 245.88C130.365 248.807 131.463 250.637 135.488 250.637C136.22 250.637 137.318 250.637 138.416 250.271C139.879 250.271 145.002 255.028 145.002 256.492C139.147 272.227 139.147 290.89 124.144 301.868C120.851 304.795 115.362 307.723 112.068 307.723C102.92 307.723 99.6265 291.255 99.6265 286.498C99.6265 283.205 99.9924 279.911 99.9924 276.984C99.2605 276.984 98.5287 276.618 97.7968 276.618ZM265.787 204.895C262.493 225.387 259.566 245.88 255.541 266.738C254.809 271.129 254.443 274.057 254.443 276.252C254.443 284.669 270.178 279.546 270.178 288.694V289.426C263.225 300.038 252.613 321.262 243.831 321.262C236.512 321.262 233.218 314.675 233.218 304.429C233.218 300.038 233.584 295.281 234.316 290.89C238.342 264.542 243.099 238.561 246.026 212.214C246.026 211.116 246.392 210.018 246.392 208.554C246.392 202.699 244.197 196.844 243.465 190.257C238.342 195.38 231.389 199.772 228.095 205.261C214.19 226.851 200.65 248.807 186.745 270.763C185.281 272.959 181.988 275.52 179.426 275.52C170.278 275.52 172.473 257.224 172.473 245.514C172.473 236.365 172.839 227.583 174.303 218.8C183.451 164.276 195.527 110.118 205.407 55.5933C208.335 44.6153 206.505 23.0251 217.483 23.0251C222.606 23.0251 230.657 31.8075 230.657 38.3944C230.657 40.59 230.291 43.1515 229.925 44.9812C225.534 94.7484 214.19 140.856 205.407 188.062V189.891C205.407 193.917 206.139 197.576 206.505 200.504C210.165 198.308 214.556 196.478 217.117 193.185C227.364 183.671 232.121 170.131 247.856 170.131C254.809 170.131 264.689 182.207 264.689 193.185C264.689 196.844 263.957 200.87 263.957 204.529C264.689 204.895 265.421 204.895 265.787 204.895ZM284.675 265.64C285.407 227.583 302.972 160.617 338.834 160.617C350.909 160.617 361.156 168.301 361.156 181.475C361.156 194.283 348.348 212.214 341.395 223.923C332.613 238.195 313.95 243.318 313.95 261.981C313.95 268.933 312.852 279.18 324.928 279.18C332.247 279.18 338.834 275.154 346.152 275.154C350.178 275.154 352.373 276.984 352.373 280.643C352.373 295.647 329.685 307.357 315.78 307.357C287.603 307.357 286.139 282.473 284.675 265.64ZM347.25 189.526C344.689 186.232 342.493 181.109 340.297 181.109C332.247 181.109 327.124 201.967 324.196 210.384C324.196 210.75 323.83 210.75 323.83 211.116C323.83 212.579 326.392 215.873 328.222 215.873C333.711 215.873 341.761 197.942 347.25 189.526ZM526.201 200.87C518.516 231.242 514.491 265.64 502.781 292.353C502.049 295.647 497.292 297.842 494.365 300.404C492.901 296.744 489.607 293.085 489.607 290.158C492.901 273.691 497.292 257.589 500.951 241.854L509.002 205.993C509.002 203.797 508.27 201.235 507.904 199.04C505.709 199.772 502.415 199.772 500.951 201.235C487.412 216.239 477.166 234.901 464.358 251.734C462.162 255.028 457.039 256.126 453.38 257.589C451.916 254.296 449.721 251.003 449.721 247.709C449.721 236.365 454.844 224.655 454.844 213.311C454.844 210.018 453.38 207.09 452.648 204.163C429.228 219.166 410.931 244.416 402.881 271.495C399.587 282.107 391.537 292.353 385.682 292.353C381.291 292.353 375.802 285.766 375.802 275.154V272.593C380.559 243.684 386.048 214.775 391.903 185.134C393.732 175.62 401.417 172.693 409.468 172.693C417.884 172.693 420.08 181.109 420.08 188.794C420.08 194.649 417.884 200.504 417.884 207.09C417.884 210.384 418.982 214.043 419.348 217.703C423.373 215.873 427.764 215.873 430.326 213.311C440.938 205.261 451.916 189.16 462.162 189.16C466.919 189.16 470.213 206.359 470.945 215.507C474.97 210.384 479.727 208.188 483.387 203.797C492.901 192.453 498.39 179.645 513.759 179.645C517.053 179.645 524.005 187.33 524.005 197.21V200.504C524.371 200.504 525.103 200.87 526.201 200.87ZM540.901 265.64C541.633 227.583 559.198 160.617 595.06 160.617C607.135 160.617 617.382 168.301 617.382 181.475C617.382 194.283 604.574 212.214 597.621 223.923C588.839 238.195 570.176 243.318 570.176 261.981C570.176 268.933 569.078 279.18 581.154 279.18C588.473 279.18 595.06 275.154 602.378 275.154C606.404 275.154 608.599 276.984 608.599 280.643C608.599 295.647 585.911 307.357 572.006 307.357C543.829 307.357 542.365 282.473 540.901 265.64ZM603.476 189.526C600.915 186.232 598.719 181.109 596.523 181.109C588.473 181.109 583.35 201.967 580.422 210.384C580.422 210.75 580.056 210.75 580.056 211.116C580.056 212.579 582.618 215.873 584.447 215.873C589.937 215.873 597.987 197.942 603.476 189.526ZM665.694 222.826C653.984 222.46 632.394 222.46 632.394 209.652C632.394 207.822 632.759 205.993 634.223 203.797C645.201 185.134 657.643 166.472 670.451 149.273C672.28 146.711 676.672 145.247 681.429 145.247C687.284 145.247 691.309 147.443 691.309 159.153C691.309 169.765 687.284 186.964 680.697 186.964C677.038 186.964 672.28 177.45 668.621 177.45C663.132 177.45 660.205 194.283 658.375 202.333C665.328 203.797 671.549 205.627 678.501 205.627H682.161C703.019 205.627 715.827 216.971 715.827 234.17C715.827 265.274 684.722 293.817 662.4 312.114C648.495 323.458 634.223 333.338 616.292 333.338C605.68 333.338 599.093 326.385 599.093 317.969C599.093 300.038 623.611 278.448 639.346 268.568C640.078 267.836 641.542 267.836 642.64 267.836H646.665C646.665 270.031 646.665 273.325 645.201 275.52C642.274 280.643 632.394 292.353 632.394 297.476C632.394 301.868 633.491 301.868 637.151 301.868C642.274 301.868 658.009 288.328 662.4 283.205C673.744 270.031 692.041 249.539 692.041 235.267C692.041 226.485 683.259 221.728 671.549 221.728C669.719 221.728 667.523 222.826 665.694 222.826ZM767.261 283.571C767.261 293.451 756.283 308.088 747.5 308.088C739.084 308.088 726.642 297.11 726.642 287.962C726.642 276.252 738.718 266.006 751.525 266.006C758.844 266.006 767.261 274.057 767.261 283.571Z" fill="black"/>
</g>
<defs>
<linearGradient id="paint0_linear_83_2985" x1="4.25797e-05" y1="311.932" x2="906.502" y2="311.932" gradientUnits="userSpaceOnUse">
<stop offset="0.2" stop-color="#2B44E9"/>
<stop offset="0.43" stop-color="#0F90F6"/>
<stop offset="0.54" stop-color="#04B2FD"/>
<stop offset="0.74" stop-color="#02CAFD"/>
<stop offset="1" stop-color="#00E6FF"/>
</linearGradient>
<clipPath id="clip0_83_2985">
<rect width="815" height="423" fill="white"/>
</clipPath>
</defs>
</svg>
