<svg width="237" height="123" viewBox="0 0 237 123" fill="none" xmlns="http://www.w3.org/2000/svg">
<g clip-path="url(#clip0_83_4070)">
<path d="M2.07563 103.031C7.98452 100.783 13.9072 98.575 19.8621 96.4409C25.8216 94.3159 31.8088 92.2552 37.8373 90.3046C43.8659 88.3541 49.9404 86.5091 56.0748 84.8339C62.2092 83.1587 68.4126 81.6625 74.7265 80.5289C77.888 79.9781 81.0818 79.51 84.3169 79.2209C87.5567 78.9363 90.8425 78.8078 94.2065 79.0694C95.8908 79.2209 97.5935 79.4687 99.3101 79.9185C101.017 80.3728 102.766 81.0429 104.386 82.1628C106.001 83.2643 107.432 84.8844 108.229 86.7202C108.643 87.6289 108.928 88.5652 109.103 89.4831C109.292 90.4056 109.379 91.3097 109.416 92.1909C109.49 93.9579 109.347 95.6193 109.204 97.2165C109.057 98.7999 108.877 100.333 108.891 101.668C108.891 102.329 108.96 102.935 109.089 103.334C109.232 103.743 109.338 103.862 109.522 104C109.729 104.138 110.115 104.28 110.543 104.284C110.985 104.298 111.533 104.193 112.113 104C113.282 103.605 114.542 102.885 115.762 102.072C116.991 101.26 118.201 100.328 119.398 99.369C121.795 97.4414 124.161 95.3761 126.554 93.32C131.335 89.2031 136.264 85.1138 141.648 81.5799C144.335 79.8129 147.143 78.1836 150.079 76.793C153.01 75.3978 156.08 74.2366 159.26 73.4334C162.435 72.6257 165.721 72.1713 169.011 72.1667C169.835 72.1438 170.659 72.2126 171.478 72.2401C172.301 72.2769 173.121 72.3916 173.94 72.4696C175.569 72.7129 177.198 73.0066 178.776 73.4656C180.369 73.8832 181.906 74.4707 183.42 75.0811C184.911 75.742 186.388 76.435 187.792 77.2336C190.631 78.7894 193.268 80.6023 195.863 82.3968C198.454 84.1959 200.999 86.0226 203.631 87.6381C206.259 89.272 208.993 90.6856 211.86 91.7136C214.727 92.7509 217.736 93.3337 220.778 93.499C221.538 93.5448 222.306 93.5265 223.07 93.5403L225.362 93.398L225.937 93.3613C226.126 93.3475 226.314 93.3062 226.508 93.2832L227.644 93.1134L228.781 92.9436C229.158 92.8748 229.527 92.7738 229.904 92.6912L231.027 92.4296C231.4 92.347 231.777 92.2598 232.141 92.1313L234.34 91.4337L236.489 90.58L237.028 90.3643L237.548 90.1165L238.592 89.6162C241.363 88.2531 244.023 86.6422 246.54 84.8109C251.565 81.1347 256.126 76.8068 260.424 72.1943C256.738 77.3024 252.43 82.0205 247.428 85.9813C244.916 87.941 242.223 89.6942 239.37 91.1583L238.293 91.6998L237.755 91.9706L237.198 92.2093L234.971 93.141L232.679 93.9166C232.302 94.0589 231.91 94.1598 231.515 94.2516L230.341 94.55C229.95 94.6463 229.559 94.7565 229.163 94.8391L227.967 95.041L226.77 95.243C226.572 95.2751 226.37 95.3164 226.172 95.3348L225.564 95.3853L223.139 95.5826C222.329 95.5826 221.515 95.6193 220.705 95.5826C217.456 95.4725 214.202 94.9034 211.119 93.8569C208.031 92.8151 205.113 91.374 202.361 89.7355C199.596 88.1108 196.982 86.3117 194.368 84.5723C191.754 82.842 189.154 81.1347 186.439 79.7119C185.09 78.9776 183.696 78.3626 182.297 77.7751C180.879 77.2382 179.457 76.7195 177.994 76.3707C176.54 75.976 175.053 75.742 173.562 75.5492C172.812 75.4987 172.067 75.4069 171.312 75.384C170.557 75.3794 169.807 75.3243 169.057 75.361C166.047 75.4253 163.047 75.898 160.134 76.7012C157.216 77.4952 154.386 78.6334 151.657 79.9965C148.928 81.3596 146.3 82.9476 143.765 84.6916C138.68 88.1751 133.972 92.2368 129.283 96.4041C126.931 98.4878 124.593 100.608 122.117 102.664C120.875 103.688 119.605 104.707 118.224 105.657C117.538 106.134 116.816 106.593 116.052 107.024C115.288 107.451 114.478 107.855 113.567 108.176C112.66 108.493 111.648 108.745 110.507 108.745C109.361 108.736 108.169 108.475 107.041 107.772C106.903 107.681 106.761 107.593 106.627 107.492C106.498 107.382 106.369 107.268 106.245 107.153C105.983 106.928 105.78 106.662 105.573 106.391C105.357 106.125 105.233 105.845 105.072 105.56C104.929 105.28 104.837 105.01 104.727 104.725C104.368 103.624 104.294 102.651 104.262 101.742C104.22 99.9289 104.4 98.3363 104.515 96.7851C104.635 95.2476 104.722 93.7697 104.639 92.3929C104.602 91.7044 104.524 91.039 104.381 90.4285C104.253 89.8044 104.059 89.2353 103.811 88.7166C103.328 87.6702 102.582 86.8671 101.597 86.2016C100.612 85.5361 99.3745 85.0588 98.0353 84.7329C96.6962 84.407 95.2696 84.2189 93.8107 84.1087C90.8839 83.9297 87.8512 84.0858 84.8232 84.4071C81.7905 84.7329 78.7486 85.2286 75.7113 85.8069C69.6413 87.0093 63.5944 88.5285 57.5981 90.2587C51.5971 91.9798 45.633 93.8799 39.7011 95.8901C33.7692 97.9003 27.8649 100.016 21.9836 102.205C16.1069 104.404 10.2533 106.671 4.41341 108.984H4.40421C2.75211 109.64 0.879122 108.837 0.221045 107.19C-0.437033 105.542 0.372909 103.674 2.02501 103.018C2.03421 103.018 2.05722 103.004 2.06642 103.004L2.07563 103.031Z" fill="url(#paint0_linear_83_4070)"/>
<path d="M28.4389 80.5693C30.035 72.1631 31.5247 52.3715 33.1208 43.9654C33.3336 42.6885 33.8657 41.4116 33.8657 39.9219C33.8657 38.0066 32.908 37.049 30.9927 37.049C29.6094 37.049 27.9069 37.6874 26.3108 37.6874C25.2467 37.6874 23.9699 36.7297 23.757 35.4529C23.757 33.3247 27.0556 33.0055 29.2902 32.4735C34.8233 31.5158 36.7386 29.2813 36.7386 24.0673C36.7386 23.1097 36.6322 21.9392 36.6322 20.8751C36.6322 16.7253 38.2283 11.5114 43.2295 11.5114C45.3576 11.5114 45.5704 13.3203 45.5704 15.0228C45.5704 17.2573 45.0384 20.8751 45.0384 23.1097C45.0384 24.9186 45.5704 25.6634 46.9537 25.6634C49.2946 25.6634 53.2317 22.4712 56.5303 22.4712C57.1687 22.4712 57.9136 22.6841 58.552 22.7905C58.02 23.4289 57.8072 24.3866 57.1687 24.8122C52.0612 28.3236 43.6551 32.3671 42.591 37.1554C40.9949 44.391 39.718 62.9058 38.1219 70.2478C38.0155 70.7799 37.9091 71.2055 37.9091 71.6311C37.9091 72.4824 38.2283 73.0144 39.3988 73.0144C39.6116 73.0144 39.9308 73.0144 40.2501 72.908C40.6757 72.908 42.1654 74.2913 42.1654 74.7169C40.4629 79.2924 40.4629 84.7191 36.1002 87.9113C35.1425 88.7626 33.5465 89.6138 32.5888 89.6138C29.9286 89.6138 28.971 84.8255 28.971 83.4422C28.971 82.4846 29.0774 81.5269 29.0774 80.6757C28.8646 80.6757 28.6517 80.5693 28.4389 80.5693ZM77.2871 59.7136C76.3294 65.6723 75.4781 71.6311 74.3077 77.6963C74.0949 78.9732 73.9885 79.8244 73.9885 80.4629C73.9885 82.9102 78.5639 81.4205 78.5639 84.0807V84.2935C76.5422 87.3793 73.4564 93.5509 70.9027 93.5509C68.7745 93.5509 67.8169 91.6356 67.8169 88.6562C67.8169 87.3793 67.9233 85.996 68.1361 84.7191C69.3066 77.0578 70.6898 69.503 71.5411 61.8417C71.5411 61.5225 71.6475 61.2033 71.6475 60.7776C71.6475 59.0751 71.0091 57.3726 70.7963 55.4573C69.3066 56.947 67.2848 58.2239 66.3272 59.82C62.2837 66.098 58.3467 72.4824 54.3032 78.8668C53.8776 79.5052 52.9199 80.25 52.1751 80.25C49.5149 80.25 50.1534 74.9297 50.1534 71.5247C50.1534 68.8645 50.2598 66.3108 50.6854 63.757C53.3456 47.9024 56.857 32.1542 59.73 16.2997C60.5812 13.1075 60.0492 6.82947 63.2414 6.82947C64.7311 6.82947 67.072 9.38322 67.072 11.2985C67.072 11.937 66.9656 12.6818 66.8592 13.2139C65.5823 27.6852 62.2837 41.0924 59.73 54.8189V55.3509C59.73 56.5214 59.9428 57.5854 60.0492 58.4367C61.1133 57.7982 62.3901 57.2662 63.135 56.3086C66.1144 53.542 67.4977 49.6049 72.0731 49.6049C74.0949 49.6049 76.9678 53.1164 76.9678 56.3086C76.9678 57.3726 76.755 58.5431 76.755 59.6072C76.9678 59.7136 77.1807 59.7136 77.2871 59.7136ZM82.7795 77.3771C82.9923 66.3108 88.0998 46.8384 98.5277 46.8384C102.039 46.8384 105.018 49.0729 105.018 52.9035C105.018 56.6278 101.294 61.8417 99.2725 65.2467C96.7187 69.3966 91.292 70.8863 91.292 76.313C91.292 78.3347 90.9728 81.3141 94.4842 81.3141C96.6123 81.3141 98.5277 80.1436 100.656 80.1436C101.826 80.1436 102.465 80.6757 102.465 81.7397C102.465 86.1024 95.8675 89.5074 91.824 89.5074C83.6307 89.5074 83.2051 82.2718 82.7795 77.3771ZM100.975 55.2445C100.23 54.2868 99.5917 52.7971 98.9533 52.7971C96.6123 52.7971 95.1226 58.8623 94.2714 61.3097C94.2714 61.4161 94.165 61.4161 94.165 61.5225C94.165 61.9481 94.9098 62.9058 95.4419 62.9058C97.038 62.9058 99.3789 57.6918 100.975 55.2445ZM153.01 58.5431C150.776 67.3748 149.605 77.3771 146.2 85.1448C145.988 86.1024 144.604 86.7409 143.753 87.4857C143.327 86.4216 142.37 85.3576 142.37 84.5063C143.327 79.718 144.604 75.0361 145.668 70.4606L148.009 60.0328C148.009 59.3943 147.796 58.6495 147.69 58.0111C147.052 58.2239 146.094 58.2239 145.668 58.6495C141.731 63.0122 138.752 68.4389 135.028 73.3336C134.389 74.2913 132.899 74.6105 131.835 75.0361C131.41 74.0785 130.771 73.1208 130.771 72.1631C130.771 68.8645 132.261 65.4595 132.261 62.1609C132.261 61.2033 131.835 60.352 131.623 59.5008C124.813 63.8634 119.492 71.2055 117.151 79.0796C116.194 82.1654 113.853 85.1448 112.15 85.1448C110.873 85.1448 109.277 83.2294 109.277 80.1436V79.3988C110.661 70.9927 112.257 62.5865 113.959 53.9676C114.491 51.201 116.726 50.3498 119.067 50.3498C121.514 50.3498 122.152 52.7971 122.152 55.0317C122.152 56.7342 121.514 58.4367 121.514 60.352C121.514 61.3097 121.833 62.3737 121.94 63.4378C123.11 62.9058 124.387 62.9058 125.132 62.1609C128.218 59.82 131.41 55.1381 134.389 55.1381C135.772 55.1381 136.73 60.1392 136.943 62.7994C138.113 61.3097 139.497 60.6712 140.561 59.3943C143.327 56.0957 144.923 52.3715 149.393 52.3715C150.35 52.3715 152.372 54.606 152.372 57.479V58.4367C152.478 58.4367 152.691 58.5431 153.01 58.5431ZM157.285 77.3771C157.498 66.3108 162.605 46.8384 173.033 46.8384C176.545 46.8384 179.524 49.0729 179.524 52.9035C179.524 56.6278 175.8 61.8417 173.778 65.2467C171.224 69.3966 165.797 70.8863 165.797 76.313C165.797 78.3347 165.478 81.3141 168.99 81.3141C171.118 81.3141 173.033 80.1436 175.161 80.1436C176.332 80.1436 176.97 80.6757 176.97 81.7397C176.97 86.1024 170.373 89.5074 166.329 89.5074C158.136 89.5074 157.711 82.2718 157.285 77.3771ZM175.48 55.2445C174.736 54.2868 174.097 52.7971 173.459 52.7971C171.118 52.7971 169.628 58.8623 168.777 61.3097C168.777 61.4161 168.67 61.4161 168.67 61.5225C168.67 61.9481 169.415 62.9058 169.947 62.9058C171.543 62.9058 173.884 57.6918 175.48 55.2445ZM193.572 64.9275C190.167 64.8211 183.889 64.8211 183.889 61.0969C183.889 60.5648 183.995 60.0328 184.421 59.3943C187.613 53.9676 191.231 48.5409 194.955 43.5398C195.487 42.7949 196.764 42.3693 198.148 42.3693C199.85 42.3693 201.021 43.0077 201.021 46.4127C201.021 49.4985 199.85 54.4996 197.935 54.4996C196.871 54.4996 195.487 51.7331 194.423 51.7331C192.827 51.7331 191.976 56.6278 191.444 58.9687C193.466 59.3943 195.275 59.9264 197.296 59.9264H198.36C204.426 59.9264 208.15 63.225 208.15 68.2261C208.15 77.2707 199.105 85.5704 192.614 90.8907C188.571 94.1893 184.421 97.0623 179.207 97.0623C176.121 97.0623 174.206 95.0406 174.206 92.5932C174.206 87.3793 181.335 81.1013 185.911 78.2283C186.124 78.0155 186.549 78.0155 186.868 78.0155H188.039C188.039 78.6539 188.039 79.6116 187.613 80.25C186.762 81.7397 183.889 85.1448 183.889 86.6344C183.889 87.9113 184.208 87.9113 185.272 87.9113C186.762 87.9113 191.338 83.9743 192.614 82.4846C195.913 78.6539 201.233 72.6952 201.233 68.5453C201.233 65.9916 198.68 64.6083 195.275 64.6083C194.743 64.6083 194.104 64.9275 193.572 64.9275ZM223.106 82.591C223.106 85.464 219.914 89.7202 217.36 89.7202C214.912 89.7202 211.295 86.528 211.295 83.8679C211.295 80.4629 214.806 77.4835 218.53 77.4835C220.658 77.4835 223.106 79.8244 223.106 82.591Z" fill="black"/>
</g>
<defs>
<linearGradient id="paint0_linear_83_4070" x1="0.000151377" y1="90.7039" x2="263.609" y2="90.7039" gradientUnits="userSpaceOnUse">
<stop offset="0.2" stop-color="#2B44E9"/>
<stop offset="0.43" stop-color="#0F90F6"/>
<stop offset="0.54" stop-color="#04B2FD"/>
<stop offset="0.74" stop-color="#02CAFD"/>
<stop offset="1" stop-color="#00E6FF"/>
</linearGradient>
<clipPath id="clip0_83_4070">
<rect width="237" height="123" fill="white"/>
</clipPath>
</defs>
</svg>
