<svg width="29" height="24" viewBox="0 0 29 24" fill="none" xmlns="http://www.w3.org/2000/svg">
<path d="M28.5195 3.03824C28.8534 2.56135 28.8729 1.9475 28.5699 1.45261C28.2669 0.957714 27.6934 0.666729 27.0884 0.700968L2.08946 2.11586C1.45609 2.15171 0.905028 2.53708 0.684794 3.09819C0.464559 3.65929 0.616765 4.2901 1.07277 4.70612L7.05224 10.1613C7.56565 10.6297 8.34613 10.7204 8.96479 10.3836L15.2992 6.93518C16.0644 6.51856 17.043 6.7658 17.4848 7.4874C17.9266 8.209 17.6644 9.13171 16.8992 9.54833L10.5648 12.9968C9.94614 13.3336 9.63922 14.0163 9.8127 14.6697L11.8332 22.2803C11.9873 22.8607 12.4906 23.3004 13.116 23.4011C13.7415 23.5018 14.3709 23.2445 14.7205 22.7452L28.5195 3.03824Z" fill="#0F172A"/>
</svg>
